<svg width="24.000000" height="24.000000" viewBox="0 0 24 24" fill="none" xmlns="http://www.w3.org/2000/svg" xmlns:xlink="http://www.w3.org/1999/xlink">
	<desc>
			Created with Pixso.
	</desc>
	<defs>
		<clipPath id="clip8271_12418">
			<rect id="file-05" width="24.000000" height="24.000000" fill="white" fill-opacity="0"/>
		</clipPath>
	</defs>
	<rect id="file-05" width="24.000000" height="24.000000" fill="#FFFFFF" fill-opacity="0"/>
	<g clip-path="url(#clip8271_12418)">
		<path id="Icon" d="M14 2.26L14 6.39C14 6.96 14 7.23 14.1 7.45C14.2 7.64 14.35 7.79 14.54 7.89C14.75 8 15.03 8 15.6 8L19.73 8M8.8 22C7.11 22 6.27 22 5.63 21.67C5.07 21.38 4.61 20.92 4.32 20.36C4 19.71 4 18.87 4 17.19L4 6.8C4 5.12 4 4.28 4.32 3.63C4.61 3.07 5.07 2.61 5.63 2.32C6.27 2 7.11 2 8.8 2L12.01 2C12.74 2 13.11 2 13.45 2.08C13.76 2.15 14.05 2.27 14.32 2.44C14.62 2.62 14.88 2.88 15.4 3.4L18.59 6.59C19.11 7.11 19.37 7.37 19.55 7.67C19.72 7.94 19.84 8.23 19.91 8.54C20 8.88 20 9.25 20 9.98L20 17.19C20 18.87 20 19.71 19.67 20.36C19.38 20.92 18.92 21.38 18.36 21.67C17.72 22 16.88 22 15.2 22L8.8 22ZM14 17L8 17M16 13L8 13" stroke="#00ABDF" stroke-opacity="1.000000" stroke-width="2.000000" stroke-linejoin="round" stroke-linecap="round"/>
	</g>
</svg>
