<svg width="20.000000" height="20.000000" viewBox="0 0 20 20" fill="none" xmlns="http://www.w3.org/2000/svg" xmlns:xlink="http://www.w3.org/1999/xlink">
	<desc>
			Created with Pixso.
	</desc>
	<defs>
		<clipPath id="clip6438_11666">
			<rect id="coins-stacked-04" width="20.000000" height="20.000000" fill="white" fill-opacity="0"/>
		</clipPath>
	</defs>
	<rect id="coins-stacked-04" width="20.000000" height="20.000000" fill="#FFFFFF" fill-opacity="0"/>
	<g clip-path="url(#clip6438_11666)">
		<path id="Icon" d="M9.99 6.66C6.31 6.66 3.33 5.54 3.33 4.16C3.33 2.78 6.31 1.66 9.99 1.66C13.68 1.66 16.66 2.78 16.66 4.16C16.66 5.54 13.68 6.66 9.99 6.66ZM16.66 8.05C16.66 9.43 13.68 10.55 9.99 10.55C6.31 10.55 3.33 9.43 3.33 8.05M16.66 11.94C16.66 13.32 13.68 14.44 9.99 14.44C6.31 14.44 3.33 13.32 3.33 11.94M16.66 4.16L16.66 15.83C16.66 17.21 13.68 18.33 9.99 18.33C6.31 18.33 3.33 17.21 3.33 15.83L3.33 4.16" stroke="#00ABDF" stroke-opacity="1.000000" stroke-width="1.500000" stroke-linejoin="round" stroke-linecap="round"/>
	</g>
</svg>
