<svg width="16.500000" height="13.167969" viewBox="0 0 16.5 13.168" fill="none" xmlns="http://www.w3.org/2000/svg" xmlns:xlink="http://www.w3.org/1999/xlink">
	<desc>
			Created with Pixso.
	</desc>
	<defs/>
	<path id="Icon" d="M0.75 3.25L10.75 3.25M5.75 9.91L15.75 9.91M13.25 5.75C11.86 5.75 10.75 4.62 10.75 3.25C10.75 1.87 11.86 0.75 13.25 0.75C14.63 0.75 15.75 1.87 15.75 3.25C15.75 4.62 14.63 5.75 13.25 5.75ZM3.25 12.41C1.86 12.41 0.75 11.29 0.75 9.91C0.75 8.53 1.86 7.41 3.25 7.41C4.63 7.41 5.75 8.53 5.75 9.91C5.75 11.29 4.63 12.41 3.25 12.41Z" stroke="#FFFFFF" stroke-opacity="1.000000" stroke-width="1.500000" stroke-linejoin="round" stroke-linecap="round"/>
</svg>
