<svg width="18.666504" height="18.667969" viewBox="0 0 18.6665 18.668" fill="none" xmlns="http://www.w3.org/2000/svg" xmlns:xlink="http://www.w3.org/1999/xlink">
	<desc>
			Created with Pixso.
	</desc>
	<defs/>
	<path id="Icon" d="M15.16 4.41L16.62 5.01C17.03 5.19 17.36 5.51 17.53 5.93C17.7 6.35 17.7 6.81 17.53 7.23L16.93 8.68C16.76 9.1 16.76 9.56 16.93 9.98L17.53 11.43C17.62 11.64 17.66 11.85 17.66 12.08C17.66 12.3 17.62 12.52 17.53 12.73C17.45 12.93 17.32 13.12 17.16 13.28C17.01 13.43 16.82 13.56 16.62 13.64L15.16 14.25C14.75 14.42 14.42 14.75 14.25 15.16L13.64 16.62C13.47 17.03 13.14 17.36 12.73 17.53C12.31 17.71 11.84 17.71 11.43 17.53L9.98 16.93C9.56 16.76 9.1 16.76 8.68 16.93L7.23 17.53C6.81 17.71 6.35 17.71 5.93 17.53C5.52 17.36 5.19 17.03 5.01 16.62L4.41 15.16C4.24 14.75 3.91 14.42 3.5 14.25L2.04 13.64C1.63 13.47 1.3 13.14 1.12 12.73C0.95 12.31 0.95 11.85 1.12 11.43L1.73 9.98C1.9 9.56 1.9 9.1 1.73 8.68L1.12 7.23C1.04 7.02 1 6.8 1 6.58C1 6.35 1.04 6.14 1.12 5.93C1.21 5.72 1.33 5.54 1.49 5.38C1.65 5.22 1.84 5.1 2.04 5.01L3.49 4.41C3.91 4.24 4.24 3.91 4.41 3.5L5.01 2.04C5.19 1.62 5.52 1.3 5.93 1.12C6.35 0.95 6.81 0.95 7.23 1.12L8.68 1.73C9.1 1.9 9.56 1.9 9.98 1.73L11.43 1.12C11.85 0.95 12.31 0.95 12.73 1.12C13.14 1.3 13.47 1.63 13.64 2.04L14.25 3.5L14.25 3.5C14.42 3.91 14.75 4.24 15.16 4.41ZM6.83 6.83L6.84 6.83M6.83 7.25C6.6 7.25 6.41 7.06 6.41 6.83C6.41 6.6 6.6 6.41 6.83 6.41C7.06 6.41 7.25 6.6 7.25 6.83C7.25 7.06 7.06 7.25 6.83 7.25ZM11.83 11.83L11.84 11.83M11.83 12.25C11.6 12.25 11.41 12.06 11.41 11.83C11.41 11.6 11.6 11.41 11.83 11.41C12.06 11.41 12.25 11.6 12.25 11.83C12.25 12.06 12.06 12.25 11.83 12.25ZM12.66 6L6 12.66" stroke="#FFFFFF" stroke-opacity="1.000000" stroke-width="2.000000" stroke-linejoin="round" stroke-linecap="round"/>
</svg>
