<svg viewBox="0 0 20 20" xmlns="http://www.w3.org/2000/svg" xmlns:xlink="http://www.w3.org/1999/xlink" width="20.000000" height="20.000000" fill="none" customFrame="#000000">
	<g id="яндекс.дзен">
		<rect id="Rectangle 2356" width="35.555546" height="35.555546" x="-7.777344" y="-7.777344" rx="8.000000" opacity="0" fill="rgb(59.0927,74.6288,99.875)" />
		<path id="Subtract" d="M20 10.158C19.4223 10.1805 18.8452 10.2039 18.2682 10.2369C17.6729 10.2686 17.0776 10.3122 16.4824 10.3776C15.2383 10.5125 14.0259 10.7563 12.9604 11.4523C12.3663 11.8372 11.8565 12.3387 11.4619 12.9262C11.0673 13.5138 10.7961 14.1752 10.6647 14.8705C10.4944 15.6869 10.3771 16.5134 10.3135 17.345C10.2427 18.2276 10.2077 19.1139 10.1715 20L12 20C16.4183 20 20 16.4183 20 12L20 10.158ZM9.83781 20C9.80985 19.2341 9.78269 18.4689 9.73214 17.7038C9.65476 16.532 9.55356 15.3583 9.16665 14.234C8.49202 12.2751 7.08919 11.0914 5.06531 10.6413C4.23876 10.4643 3.40062 10.3464 2.55729 10.2884C1.70573 10.2198 0.853 10.1863 8.65974e-15 10.152L0 12C0 16.4183 3.58172 20 8 20L9.83781 20ZM20 9.79375L20 8C20 3.58172 16.4183 0 12 0L10.1696 0C10.2033 0.849122 10.234 1.69922 10.3056 2.54582C10.3665 3.40627 10.4865 4.26152 10.6647 5.10553C11.0913 6.98517 12.1945 8.34334 14.0379 9.05118C15.1014 9.44772 16.2205 9.57858 17.3475 9.66582C18.0003 9.71738 18.6531 9.75703 19.3079 9.77686L19.3634 9.77686C19.5477 9.78264 19.7675 9.78843 20 9.79375ZM9.83635 0L8 0C3.58172 0 0 3.58172 0 8L0 9.81181C0.735146 9.78668 1.46804 9.75996 2.19219 9.71143C3.43033 9.63014 4.67244 9.52704 5.85304 9.09876C7.69437 8.42265 8.81346 7.11603 9.30356 5.26217C9.52463 4.39073 9.65758 3.49932 9.7004 2.60134C9.74923 1.73435 9.79272 0.868697 9.83635 0Z" fill="rgb(177,178,180)" fill-rule="evenodd" />
	</g>
</svg>
