<svg width="30.000000" height="30.000000" viewBox="0 0 30 30" fill="none" xmlns="http://www.w3.org/2000/svg" xmlns:xlink="http://www.w3.org/1999/xlink">
	<desc>
			Created with Pixso.
	</desc>
	<defs/>
	<path id="Vector" d="M12.28 25.16C12.28 25.36 12.24 25.57 12.17 25.76C12.09 25.95 11.97 26.12 11.83 26.27C11.68 26.41 11.51 26.53 11.32 26.61C11.13 26.69 10.93 26.73 10.72 26.73C10.3 26.73 9.9 26.57 9.61 26.27C9.31 25.97 9.14 25.57 9.14 25.16C9.15 24.74 9.32 24.34 9.61 24.05C9.91 23.76 10.3 23.59 10.72 23.59C11.13 23.59 11.53 23.76 11.82 24.05C12.12 24.34 12.28 24.74 12.28 25.16Z" fill="#FFFFFF" fill-opacity="1.000000" fill-rule="nonzero"/>
	<path id="Vector" d="M20.97 25.16C20.97 25.36 20.93 25.57 20.85 25.76C20.78 25.95 20.66 26.12 20.52 26.27C20.37 26.41 20.2 26.53 20.01 26.61C19.82 26.69 19.61 26.73 19.41 26.73C19.2 26.73 18.99 26.69 18.8 26.61C18.61 26.53 18.44 26.42 18.29 26.27C18.14 26.13 18.03 25.95 17.95 25.76C17.87 25.57 17.83 25.36 17.83 25.16C17.83 24.95 17.87 24.75 17.95 24.55C18.03 24.36 18.15 24.19 18.29 24.05C18.44 23.9 18.61 23.78 18.81 23.71C19 23.63 19.2 23.59 19.41 23.59C19.82 23.59 20.22 23.76 20.51 24.05C20.8 24.34 20.97 24.74 20.97 25.16Z" fill="#FFFFFF" fill-opacity="1.000000" fill-rule="nonzero"/>
	<path id="Vector" d="M21.24 21.77L8.84 21.77C8.62 21.77 8.4 21.69 8.23 21.54C8.06 21.4 7.94 21.19 7.91 20.97L5.56 6.88L3.88 6.88C3.63 6.88 3.39 6.78 3.21 6.6C3.03 6.43 2.93 6.19 2.93 5.93C2.93 5.68 3.03 5.44 3.21 5.26C3.39 5.08 3.63 4.98 3.88 4.98L6.38 4.98C6.6 4.98 6.82 5.06 6.99 5.21C7.16 5.35 7.27 5.55 7.31 5.77L7.81 8.71L23.74 8.71C23.89 8.71 24.03 8.74 24.15 8.8C24.28 8.86 24.39 8.95 24.48 9.06C24.57 9.17 24.64 9.3 24.67 9.44C24.7 9.58 24.7 9.72 24.67 9.86L22.17 21.02C22.12 21.23 22 21.42 21.84 21.56C21.67 21.69 21.46 21.77 21.24 21.77ZM9.64 19.87L20.49 19.87L22.54 10.61L8.12 10.61L9.64 19.87Z" fill="#FFFFFF" fill-opacity="1.000000" fill-rule="nonzero"/>
</svg>
