<svg width="24.000000" height="24.000000" viewBox="0 0 24 24" fill="none" xmlns="http://www.w3.org/2000/svg" xmlns:xlink="http://www.w3.org/1999/xlink">
	<desc>
			Created with Pixso.
	</desc>
	<defs>
		<clipPath id="clip7291_10961">
			<rect id="home-02" width="24.000000" height="24.000000" fill="white" fill-opacity="0"/>
		</clipPath>
	</defs>
	<rect id="home-02" width="24.000000" height="24.000000" fill="#FFFFFF" fill-opacity="0"/>
	<g clip-path="url(#clip7291_10961)">
		<path id="Icon" d="M21 17.79C21 18.91 21 19.48 20.78 19.9C20.59 20.28 20.28 20.58 19.9 20.78C19.48 21 18.92 21 17.79 21L6.19 21C5.07 21 4.51 21 4.09 20.78C3.71 20.58 3.4 20.28 3.21 19.9C3 19.48 3 18.91 3 17.79L3 10.56C3 9.98 3 9.7 3.07 9.43C3.13 9.2 3.24 8.98 3.39 8.78C3.55 8.56 3.78 8.39 4.23 8.03L11.01 2.76C11.36 2.48 11.54 2.35 11.73 2.3C11.9 2.25 12.09 2.25 12.26 2.3C12.45 2.35 12.63 2.48 12.98 2.76L19.76 8.03C20.21 8.39 20.44 8.56 20.6 8.78C20.75 8.98 20.86 9.2 20.92 9.43C21 9.7 21 9.98 21 10.56L21 17.79ZM9 21L9 13.59C9 13.03 9 12.75 9.1 12.54C9.2 12.35 9.35 12.2 9.54 12.1C9.76 12 10.04 12 10.6 12L13.39 12C13.96 12 14.24 12 14.45 12.1C14.64 12.2 14.79 12.35 14.89 12.54C15 12.75 15 13.03 15 13.59L15 21" stroke="#00ABDF" stroke-opacity="1.000000" stroke-width="2.000000" stroke-linejoin="round" stroke-linecap="round"/>
	</g>
</svg>
