<svg viewBox="0 0 12 6.66797" xmlns="http://www.w3.org/2000/svg" xmlns:xlink="http://www.w3.org/1999/xlink" width="12.000000" height="6.667969" fill="none" customFrame="#000000">
	<g id="Group">
		<path id="Vector" d="M0.30018 10.2556L3.8207 6.33401C3.99128 6.144 3.99128 5.856 3.8207 5.66599L0.30018 1.74438C0.129465 1.55421 0.129622 1.26593 0.300543 1.07595L0.896851 0.41315C1.09548 0.192374 1.44163 0.192374 1.64026 0.41315L6.3658 5.66558C6.53686 5.85571 6.53686 6.14429 6.3658 6.33442L1.64026 11.5868C1.44163 11.8076 1.09548 11.8076 0.896851 11.5868L0.300543 10.9241C0.129622 10.7341 0.129465 10.4458 0.30018 10.2556Z" fill="rgb(255,255,255)" fill-rule="nonzero" transform="matrix(-4.37114e-08,1,-1,-4.37114e-08,12,0)" />
	</g>
</svg>
