<svg width="15.000000" height="15.000000" viewBox="0 0 15 15" fill="none" xmlns="http://www.w3.org/2000/svg" xmlns:xlink="http://www.w3.org/1999/xlink">
	<desc>
			Created with Pixso.
	</desc>
	<defs>
		<clipPath id="clip6997_10353">
			<rect id="_Layer_" rx="0.000000" width="14.000000" height="14.000000" transform="translate(0.500000 0.500000)" fill="white" fill-opacity="0"/>
		</clipPath>
	</defs>
	<rect id="_Layer_" rx="0.000000" width="14.000000" height="14.000000" transform="translate(0.500000 0.500000)" fill="#FFFFFF" fill-opacity="0"/>
	<g clip-path="url(#clip6997_10353)">
		<path id="Vector" d="M8.91 5.21C8.83 4.61 8.22 4.41 7.51 4.5C6.9 4.57 6.54 4.98 6.5 5.5L6.07 8.52C6.07 8.55 6.07 8.59 6.07 8.63C6.09 9.14 6.59 9.54 7.19 9.51C7.67 9.49 8.06 9.2 8.19 8.82C8.19 8.79 8.2 8.77 8.21 8.74L8.9 5.56C8.93 5.45 8.93 5.33 8.91 5.21Z" fill="#8E9AAB" fill-opacity="1.000000" fill-rule="nonzero"/>
		<path id="Vector" d="M8.53 4.42Q8.11 4.23 7.49 4.3L7.49 4.3Q7.08 4.35 6.8 4.56Q6.72 4.62 6.65 4.69Q6.53 4.81 6.46 4.94Q6.32 5.17 6.3 5.47L5.87 8.49Q5.87 8.49 5.87 8.5Q5.87 8.5 5.87 8.5Q5.87 8.57 5.87 8.64Q5.87 8.74 5.9 8.84Q5.93 8.96 5.99 9.08Q6.02 9.12 6.04 9.16Q6.14 9.31 6.29 9.43Q6.33 9.46 6.37 9.49Q6.53 9.59 6.71 9.65Q6.78 9.67 6.85 9.69Q7.02 9.72 7.2 9.71Q7.46 9.7 7.69 9.6Q7.82 9.55 7.94 9.46Q8.16 9.31 8.28 9.1Q8.34 9 8.38 8.88Q8.39 8.83 8.4 8.78L9.1 5.6Q9.12 5.5 9.12 5.39Q9.13 5.29 9.11 5.19Q9.08 4.97 8.97 4.8Q8.94 4.75 8.91 4.71Q8.9 4.69 8.88 4.67Q8.74 4.51 8.53 4.42ZM6.5 5.5L6.07 8.52C6.07 8.55 6.07 8.59 6.07 8.63C6.09 9.14 6.59 9.54 7.19 9.51C7.67 9.49 8.06 9.2 8.19 8.82C8.19 8.79 8.2 8.77 8.21 8.74L8.9 5.56C8.93 5.45 8.93 5.33 8.91 5.21C8.83 4.61 8.22 4.41 7.51 4.5C6.9 4.57 6.54 4.98 6.5 5.5Z" fill="#8E9AAB" fill-opacity="1.000000" fill-rule="evenodd"/>
		<path id="Vector" d="M10.29 7.24L9 5.16C8.89 4.99 8.72 4.86 8.5 4.83C8.11 4.77 7.75 5.04 7.69 5.43C7.66 5.64 7.72 5.83 7.84 5.98L9.41 7.87C9.49 7.97 9.61 8.04 9.74 8.06C9.75 8.06 9.76 8.06 9.77 8.06C10.05 8.09 10.32 7.89 10.36 7.6C10.38 7.47 10.35 7.34 10.29 7.24L10.29 7.24Z" fill="#8E9AAB" fill-opacity="1.000000" fill-rule="nonzero"/>
		<path id="Vector" d="M9.17 5.05L9.17 5.05Q9.12 4.97 9.05 4.9Q8.98 4.83 8.9 4.78Q8.82 4.73 8.74 4.69Q8.64 4.65 8.53 4.63Q8.43 4.62 8.33 4.62Q8.25 4.63 8.17 4.65Q8.09 4.67 8.01 4.71Q7.93 4.75 7.85 4.8Q7.78 4.86 7.71 4.92Q7.66 4.99 7.62 5.06Q7.57 5.13 7.54 5.21Q7.51 5.3 7.49 5.4Q7.47 5.5 7.48 5.61Q7.49 5.7 7.52 5.78Q7.54 5.87 7.58 5.95Q7.63 6.03 7.69 6.11L9.25 8Q9.34 8.1 9.46 8.17Q9.57 8.23 9.71 8.26Q9.72 8.26 9.74 8.26L9.74 8.26Q9.89 8.28 10.03 8.24Q10.16 8.2 10.28 8.11Q10.4 8.02 10.47 7.9Q10.54 7.78 10.56 7.63Q10.58 7.5 10.56 7.37Q10.53 7.25 10.46 7.14Q10.46 7.14 10.46 7.13L9.17 5.05ZM10.36 7.42C10.37 7.48 10.37 7.54 10.36 7.6C10.32 7.89 10.05 8.09 9.77 8.06C9.76 8.06 9.75 8.06 9.74 8.06C9.61 8.04 9.49 7.97 9.41 7.87L7.84 5.98C7.72 5.83 7.66 5.64 7.69 5.43C7.75 5.04 8.11 4.77 8.5 4.83C8.72 4.86 8.89 4.99 9 5.16L10.18 7.07L10.29 7.24L10.29 7.24L10.29 7.24L10.29 7.24C10.32 7.3 10.35 7.36 10.36 7.42Z" fill="#8E9AAB" fill-opacity="1.000000" fill-rule="evenodd"/>
		<path id="Vector" d="M11.93 7.64L9.89 6.98C9.89 6.98 9.88 6.98 9.87 6.98C9.6 6.9 9.33 7.07 9.25 7.36C9.21 7.52 9.24 7.67 9.32 7.8C9.38 7.91 9.48 7.99 9.61 8.02C9.61 8.03 9.62 8.03 9.63 8.03L11.7 8.52C11.93 8.58 12.15 8.43 12.21 8.19C12.27 7.96 12.14 7.71 11.93 7.64L11.93 7.64Z" fill="#8E9AAB" fill-opacity="1.000000" fill-rule="nonzero"/>
		<path id="Vector" d="M9.96 6.79Q9.94 6.78 9.92 6.78Q9.79 6.75 9.66 6.76Q9.52 6.78 9.38 6.86Q9.27 6.93 9.2 7.03Q9.1 7.15 9.06 7.31Q9.04 7.39 9.03 7.48Q9.03 7.55 9.04 7.62Q9.06 7.71 9.09 7.79Q9.11 7.85 9.14 7.9Q9.23 8.03 9.34 8.12Q9.44 8.18 9.55 8.22Q9.56 8.22 9.58 8.22L11.66 8.72Q11.78 8.75 11.89 8.73Q12.01 8.71 12.13 8.64Q12.22 8.57 12.29 8.49Q12.37 8.38 12.4 8.24Q12.44 8.11 12.42 7.99Q12.41 7.87 12.35 7.76Q12.28 7.64 12.18 7.55Q12.1 7.49 12 7.46Q11.99 7.46 11.99 7.45L9.96 6.79ZM12.1 7.75C12.05 7.7 11.99 7.66 11.93 7.64L11.93 7.64L11.93 7.64L11.93 7.64L11.74 7.58L9.89 6.98C9.89 6.98 9.88 6.98 9.87 6.98C9.6 6.9 9.33 7.07 9.25 7.36C9.21 7.52 9.24 7.67 9.32 7.8C9.38 7.91 9.48 7.99 9.61 8.02C9.61 8.03 9.62 8.03 9.63 8.03L11.7 8.52C11.93 8.58 12.15 8.43 12.21 8.19C12.25 8.03 12.2 7.86 12.1 7.75Z" fill="#8E9AAB" fill-opacity="1.000000" fill-rule="evenodd"/>
		<path id="Vector" d="M5.53 6.43L7.54 5.9C7.7 5.86 7.85 5.73 7.94 5.55C8.1 5.21 7.99 4.79 7.7 4.62C7.54 4.53 7.36 4.52 7.21 4.58L5.28 5.42C5.17 5.47 5.08 5.55 5.03 5.67C5.03 5.68 5.02 5.69 5.02 5.69C4.91 5.95 5 6.26 5.22 6.39C5.31 6.44 5.42 6.46 5.53 6.43L5.53 6.43Z" fill="#8E9AAB" fill-opacity="1.000000" fill-rule="nonzero"/>
		<path id="Vector" d="M7.59 6.1L7.59 6.1Q7.64 6.08 7.7 6.06Q7.81 6.01 7.9 5.93Q7.93 5.91 7.96 5.87Q8.06 5.77 8.12 5.63Q8.19 5.48 8.21 5.32Q8.22 5.15 8.18 4.97Q8.12 4.75 7.98 4.6Q7.9 4.51 7.8 4.45Q7.7 4.39 7.59 4.36Q7.53 4.35 7.46 4.34Q7.39 4.34 7.33 4.35Q7.23 4.36 7.13 4.4L5.2 5.24Q5.11 5.28 5.04 5.33Q4.92 5.43 4.85 5.59Q4.84 5.6 4.84 5.61Q4.84 5.61 4.84 5.62Q4.78 5.75 4.77 5.87Q4.77 6.01 4.8 6.14Q4.85 6.32 4.96 6.44Q5.03 6.51 5.11 6.56Q5.23 6.63 5.35 6.64Q5.45 6.66 5.56 6.63Q5.57 6.63 5.58 6.62L7.59 6.1ZM5.33 6.43C5.29 6.42 5.25 6.41 5.22 6.39C5 6.26 4.91 5.95 5.02 5.69C5.02 5.69 5.03 5.68 5.03 5.67C5.08 5.55 5.17 5.47 5.28 5.42L7.21 4.58C7.36 4.52 7.54 4.53 7.7 4.62C7.99 4.79 8.1 5.21 7.94 5.55C7.85 5.73 7.7 5.86 7.54 5.9L5.72 6.38L5.53 6.43L5.53 6.43L5.53 6.43L5.53 6.43C5.46 6.45 5.39 6.45 5.33 6.43Z" fill="#8E9AAB" fill-opacity="1.000000" fill-rule="evenodd"/>
		<path id="Vector" d="M4.87 8.25L5.94 6.27C5.94 6.26 5.94 6.26 5.94 6.25C6.07 5.98 5.95 5.67 5.68 5.55C5.53 5.48 5.37 5.48 5.23 5.54C5.1 5.59 5 5.68 4.94 5.8C4.94 5.81 4.94 5.82 4.93 5.82L4.03 7.88C3.94 8.1 4.04 8.35 4.27 8.45C4.49 8.55 4.76 8.46 4.87 8.25L4.87 8.25Z" fill="#8E9AAB" fill-opacity="1.000000" fill-rule="nonzero"/>
		<path id="Vector" d="M5.06 8.34L6.11 6.36L6.11 6.36Q6.12 6.35 6.12 6.34L6.12 6.34Q6.19 6.19 6.2 6.05Q6.2 5.91 6.15 5.77Q6.1 5.64 6.01 5.54Q5.91 5.43 5.76 5.36Q5.68 5.33 5.61 5.31Q5.53 5.3 5.45 5.3Q5.37 5.3 5.3 5.31Q5.22 5.32 5.15 5.35Q5.01 5.41 4.91 5.51Q4.82 5.6 4.76 5.71Q4.76 5.72 4.75 5.73Q4.75 5.74 4.75 5.74L3.85 7.8Q3.8 7.92 3.79 8.04Q3.79 8.16 3.84 8.28Q3.89 8.4 3.96 8.48Q4.05 8.58 4.18 8.64Q4.3 8.69 4.42 8.69Q4.55 8.7 4.67 8.66Q4.81 8.62 4.91 8.53Q4.99 8.45 5.05 8.35Q5.05 8.34 5.06 8.34ZM4.87 8.25L4.97 8.08L5.94 6.27C5.94 6.26 5.94 6.26 5.94 6.25C6.07 5.98 5.95 5.67 5.68 5.55C5.53 5.48 5.37 5.48 5.23 5.54C5.1 5.59 5 5.68 4.94 5.8C4.94 5.81 4.94 5.82 4.93 5.82L4.03 7.88C3.94 8.1 4.04 8.35 4.27 8.45C4.43 8.53 4.61 8.5 4.74 8.41C4.8 8.37 4.84 8.32 4.87 8.25L4.87 8.25L4.87 8.25L4.87 8.25Z" fill="#8E9AAB" fill-opacity="1.000000" fill-rule="evenodd"/>
		<path id="Vector" d="M9.68 10.61L8.05 7.57C7.96 7.4 7.8 7.26 7.6 7.21C7.21 7.09 6.79 7.32 6.68 7.71C6.61 7.92 6.65 8.14 6.77 8.32L8.64 11.22C8.72 11.33 8.83 11.42 8.98 11.47C9.19 11.53 9.4 11.47 9.55 11.34C9.63 11.26 9.69 11.17 9.73 11.06C9.77 10.91 9.75 10.75 9.68 10.61L9.68 10.61Z" fill="#8E9AAB" fill-opacity="1.000000" fill-rule="nonzero"/>
		<path id="Vector" d="M9.85 10.51L8.23 7.48L8.23 7.47Q8.18 7.39 8.12 7.32Q8.06 7.25 8 7.19Q7.93 7.14 7.85 7.09Q7.76 7.04 7.66 7.01Q7.56 6.98 7.46 6.98Q7.37 6.97 7.29 6.98Q7.2 6.99 7.12 7.01Q7.02 7.05 6.94 7.09Q6.85 7.14 6.78 7.2Q6.72 7.25 6.66 7.32Q6.6 7.39 6.56 7.46Q6.52 7.55 6.49 7.65Q6.45 7.76 6.45 7.87Q6.44 7.96 6.46 8.06Q6.47 8.16 6.51 8.25Q6.54 8.34 6.6 8.43L8.47 11.33Q8.55 11.45 8.67 11.53Q8.78 11.62 8.92 11.66Q9.03 11.69 9.13 11.69Q9.23 11.69 9.33 11.67Q9.43 11.65 9.52 11.6Q9.61 11.55 9.69 11.49Q9.77 11.41 9.83 11.32Q9.89 11.23 9.92 11.12Q9.97 10.96 9.95 10.81Q9.93 10.66 9.86 10.51Q9.85 10.51 9.85 10.51ZM9.68 10.61L8.05 7.57C7.96 7.4 7.8 7.26 7.6 7.21C7.21 7.09 6.79 7.32 6.68 7.71C6.61 7.92 6.65 8.14 6.77 8.32L8.64 11.22C8.72 11.33 8.83 11.42 8.98 11.47C9.19 11.53 9.4 11.47 9.55 11.34C9.63 11.26 9.69 11.17 9.73 11.06C9.77 10.91 9.75 10.75 9.68 10.61L9.68 10.61Z" fill="#8E9AAB" fill-opacity="1.000000" fill-rule="evenodd"/>
		<path id="Vector" d="M9.67 10.6C9.59 10.46 9.46 10.36 9.31 10.32C9.16 10.28 8.99 10.29 8.85 10.37C8.65 10.49 8.54 10.69 8.54 10.9L8.56 13.96C8.56 14.05 8.59 14.14 8.63 14.22C8.78 14.48 9.12 14.57 9.38 14.42C9.55 14.33 9.65 14.15 9.66 13.97L9.75 10.92L9.75 10.92C9.75 10.81 9.73 10.7 9.67 10.6Z" fill="#8E9AAB" fill-opacity="1.000000" fill-rule="nonzero"/>
		<path id="Vector" d="M9.64 10.26Q9.52 10.17 9.37 10.13L9.37 10.13Q9.2 10.08 9.05 10.1Q8.89 10.12 8.75 10.2Q8.65 10.26 8.57 10.34Q8.5 10.41 8.45 10.5Q8.39 10.6 8.37 10.7Q8.34 10.8 8.34 10.9L8.36 13.96Q8.36 14.05 8.39 14.14Q8.41 14.24 8.46 14.32Q8.54 14.45 8.65 14.54Q8.76 14.63 8.91 14.67Q9.06 14.71 9.2 14.69Q9.35 14.67 9.48 14.6Q9.57 14.55 9.64 14.48Q9.71 14.41 9.75 14.33Q9.8 14.25 9.83 14.16Q9.85 14.07 9.86 13.98L9.95 10.92Q9.95 10.91 9.95 10.9Q9.95 10.8 9.93 10.69Q9.9 10.59 9.85 10.5Q9.76 10.36 9.64 10.26ZM9.75 10.92L9.75 10.92L9.75 10.92L9.75 10.92C9.75 10.9 9.75 10.89 9.75 10.88C9.75 10.78 9.72 10.69 9.67 10.6C9.59 10.46 9.46 10.36 9.31 10.32C9.16 10.28 8.99 10.29 8.85 10.37C8.65 10.49 8.54 10.69 8.54 10.9L8.56 13.96C8.56 14.05 8.59 14.14 8.63 14.22C8.78 14.48 9.12 14.57 9.38 14.42C9.55 14.33 9.65 14.15 9.66 13.97L9.75 11.12L9.75 10.92Z" fill="#8E9AAB" fill-opacity="1.000000" fill-rule="evenodd"/>
		<path id="Vector" d="M6.26 11.62L7.67 8.47C7.75 8.3 7.76 8.09 7.68 7.9C7.53 7.52 7.1 7.33 6.71 7.48C6.5 7.56 6.35 7.73 6.28 7.92L5.14 11.18C5.09 11.31 5.09 11.46 5.15 11.6C5.23 11.8 5.4 11.94 5.6 11.97C5.71 11.99 5.82 11.98 5.93 11.94C6.08 11.88 6.2 11.76 6.26 11.62L6.26 11.62Z" fill="#8E9AAB" fill-opacity="1.000000" fill-rule="nonzero"/>
		<path id="Vector" d="M6.44 11.7L7.85 8.55L7.85 8.55Q7.89 8.46 7.91 8.37Q7.93 8.29 7.93 8.2Q7.94 8.11 7.92 8.02Q7.91 7.92 7.87 7.82Q7.83 7.73 7.77 7.64Q7.72 7.57 7.66 7.51Q7.6 7.45 7.53 7.4Q7.45 7.35 7.36 7.31Q7.28 7.27 7.18 7.25Q7.1 7.23 7.01 7.23Q6.92 7.23 6.84 7.24Q6.74 7.26 6.64 7.3Q6.54 7.33 6.45 7.4Q6.37 7.45 6.3 7.52Q6.23 7.6 6.18 7.68Q6.13 7.76 6.09 7.86L4.95 11.11Q4.9 11.25 4.9 11.39Q4.91 11.53 4.96 11.67Q5 11.77 5.06 11.85Q5.12 11.94 5.21 12Q5.29 12.07 5.38 12.11Q5.47 12.15 5.57 12.17Q5.68 12.19 5.8 12.17Q5.9 12.16 6 12.12Q6.16 12.06 6.27 11.96Q6.37 11.86 6.44 11.71Q6.44 11.71 6.44 11.7ZM6.15 11.79C6.09 11.85 6.02 11.91 5.93 11.94C5.82 11.98 5.71 11.99 5.6 11.97C5.4 11.94 5.23 11.8 5.15 11.6C5.09 11.46 5.09 11.31 5.14 11.18L6.28 7.92C6.35 7.73 6.5 7.56 6.71 7.48C7.1 7.33 7.53 7.52 7.68 7.9C7.76 8.09 7.75 8.3 7.67 8.47L6.34 11.44L6.26 11.62L6.26 11.62L6.26 11.62L6.26 11.62C6.23 11.68 6.2 11.74 6.15 11.79Z" fill="#8E9AAB" fill-opacity="1.000000" fill-rule="evenodd"/>
		<path id="Vector" d="M6.29 11.55C6.34 11.4 6.32 11.24 6.25 11.1C6.17 10.96 6.05 10.85 5.89 10.8C5.67 10.74 5.44 10.8 5.29 10.94L3.07 13.05C3.01 13.12 2.96 13.19 2.93 13.29C2.84 13.58 3 13.88 3.29 13.97C3.48 14.03 3.68 13.98 3.81 13.85L6.11 11.83L6.11 11.83C6.19 11.76 6.25 11.67 6.29 11.56L6.29 11.55Z" fill="#8E9AAB" fill-opacity="1.000000" fill-rule="nonzero"/>
		<path id="Vector" d="M6.51 11.31Q6.5 11.16 6.42 11.01L6.42 11.01Q6.39 10.94 6.34 10.88Q6.29 10.82 6.23 10.77Q6.17 10.72 6.11 10.68Q6.03 10.64 5.94 10.61Q5.83 10.58 5.72 10.58Q5.62 10.58 5.52 10.6Q5.41 10.63 5.32 10.68Q5.23 10.73 5.15 10.8L2.94 12.91Q2.87 12.97 2.82 13.04Q2.77 13.13 2.74 13.23Q2.69 13.38 2.7 13.52Q2.72 13.66 2.79 13.8Q2.86 13.93 2.97 14.02Q3.08 14.11 3.23 14.16Q3.33 14.19 3.43 14.19Q3.52 14.19 3.62 14.17Q3.71 14.15 3.8 14.11Q3.88 14.07 3.95 14L6.24 11.98Q6.25 11.97 6.26 11.96Q6.34 11.89 6.39 11.8Q6.45 11.72 6.48 11.61Q6.48 11.61 6.48 11.61Q6.53 11.46 6.51 11.31ZM6.29 11.55C6.34 11.4 6.32 11.24 6.25 11.1C6.17 10.96 6.05 10.85 5.89 10.8C5.67 10.74 5.44 10.8 5.29 10.94L3.07 13.05C3.01 13.12 2.96 13.19 2.93 13.29C2.84 13.58 3 13.88 3.29 13.97C3.48 14.03 3.68 13.98 3.81 13.85L6.11 11.83L6.11 11.83L6.11 11.83C6.19 11.76 6.25 11.67 6.29 11.56L6.29 11.55Z" fill="#8E9AAB" fill-opacity="1.000000" fill-rule="evenodd"/>
		<path id="Vector" d="M9.63 3.13C10.17 2.58 10.17 1.7 9.63 1.16C9.08 0.61 8.19 0.61 7.64 1.16C7.09 1.7 7.09 2.58 7.64 3.13C8.19 3.68 9.08 3.68 9.63 3.13Z" fill="#8E9AAB" fill-opacity="1.000000" fill-rule="nonzero"/>
		<path id="Vector" d="M9.49 3.5Q9.64 3.4 9.77 3.28Q9.89 3.15 9.99 3Q10.06 2.88 10.12 2.75Q10.18 2.61 10.21 2.47Q10.24 2.31 10.24 2.14Q10.24 1.98 10.21 1.82Q10.18 1.68 10.12 1.54Q10.06 1.41 9.99 1.28Q9.89 1.14 9.77 1.01Q9.64 0.89 9.49 0.79Q9.37 0.72 9.24 0.66Q9.1 0.6 8.96 0.58Q8.8 0.55 8.63 0.55Q8.47 0.55 8.31 0.58Q8.16 0.6 8.03 0.66Q7.89 0.72 7.77 0.79Q7.62 0.89 7.49 1.01Q7.37 1.14 7.27 1.28Q7.2 1.41 7.14 1.54Q7.09 1.68 7.06 1.82Q7.02 1.98 7.02 2.14Q7.02 2.31 7.06 2.47Q7.09 2.61 7.14 2.75Q7.2 2.88 7.27 3Q7.37 3.15 7.49 3.28Q7.62 3.4 7.77 3.5Q7.89 3.57 8.03 3.62Q8.16 3.68 8.31 3.71Q8.46 3.74 8.63 3.74Q8.8 3.74 8.96 3.71Q9.1 3.68 9.24 3.62Q9.37 3.57 9.49 3.5ZM9.63 1.16C10.17 1.7 10.17 2.58 9.63 3.13C9.08 3.68 8.19 3.68 7.64 3.13C7.09 2.58 7.09 1.7 7.64 1.16C8.19 0.61 9.08 0.61 9.63 1.16Z" fill="#8E9AAB" fill-opacity="1.000000" fill-rule="evenodd"/>
	</g>
</svg>
