<svg width="20.000000" height="22.000000" viewBox="0 0 20 22" fill="none" xmlns="http://www.w3.org/2000/svg" xmlns:xlink="http://www.w3.org/1999/xlink">
	<desc>
			Created with Pixso.
	</desc>
	<defs/>
	<path id="Icon" d="M14.2 3C15.88 3 16.72 3 17.36 3.32C17.92 3.61 18.38 4.07 18.67 4.63C19 5.28 19 6.12 19 7.8L19 16.19C19 17.87 19 18.71 18.67 19.36C18.38 19.92 17.92 20.38 17.36 20.67C16.72 21 15.88 21 14.2 21L5.79 21C4.11 21 3.27 21 2.63 20.67C2.07 20.38 1.61 19.92 1.32 19.36C1 18.71 1 17.87 1 16.19L1 7.8C1 6.12 1 5.28 1.32 4.63C1.61 4.07 2.07 3.61 2.63 3.32C3.27 3 4.11 3 5.79 3L14.2 3ZM19 9L1 9M14 1L14 5M6 1L6 5M7 15L9 17L13.5 12.5" stroke="#B2BAC6" stroke-opacity="1.000000" stroke-width="2.000000" stroke-linejoin="round" stroke-linecap="round"/>
</svg>
