<svg viewBox="0 0 45 45" xmlns="http://www.w3.org/2000/svg" xmlns:xlink="http://www.w3.org/1999/xlink" width="45.000000" height="45.000000" fill="none">
	<rect id="иконка экг" width="45.000000" height="45.000000" x="0.000000" y="0.000000" fill="rgb(255,255,255)" fill-opacity="0" />
	<g id="cardiologist">
		<path id="Vector" d="M9.18908 29.1428C15.0973 35.6429 22.4999 41.1059 22.4999 41.1059C22.4999 41.1059 42.9997 27.1465 42.9997 14.851C42.9997 8.79471 38.1149 3.88281 32.0874 3.88281C27.9477 3.88281 24.4818 5.87702 22.4978 9.2007C20.5158 5.87912 17.05 3.88492 12.9123 3.88492C6.88481 3.88492 2 8.79471 2 14.8531C2 18.3135 3.62408 21.8559 5.95975 25.1565" fill-rule="nonzero" stroke="rgb(0,171,223)" stroke-linecap="round" stroke-linejoin="round" stroke-width="2" />
		<path id="Vector" d="M2 25.1571L11.9203 25.1571L13.9023 21.8334L17.209 28.4808L22.4999 14.5234L26.468 25.1571L31.7588 25.1571" fill-rule="nonzero" stroke="rgb(0,171,223)" stroke-linecap="round" stroke-linejoin="round" stroke-width="2" />
	</g>
</svg>
