<svg width="20.000000" height="20.734375" viewBox="0 0 20 20.7344" fill="none" xmlns="http://www.w3.org/2000/svg" xmlns:xlink="http://www.w3.org/1999/xlink">
	<desc>
			Created with Pixso.
	</desc>
	<defs/>
	<path id="Icon" d="M19 16.53C19 17.65 19 18.21 18.78 18.64C18.59 19.01 18.28 19.32 17.9 19.51C17.48 19.73 16.92 19.73 15.8 19.73L4.2 19.73C3.07 19.73 2.51 19.73 2.09 19.51C1.71 19.32 1.4 19.01 1.21 18.64C1 18.21 1 17.65 1 16.53L1 9.29C1 8.72 1 8.43 1.07 8.17C1.13 7.93 1.24 7.71 1.39 7.52C1.55 7.3 1.78 7.12 2.23 6.77L9.01 1.49C9.36 1.22 9.54 1.08 9.73 1.03C9.9 0.98 10.09 0.98 10.26 1.03C10.45 1.08 10.63 1.22 10.98 1.49L17.76 6.77C18.21 7.12 18.44 7.3 18.6 7.52C18.75 7.71 18.86 7.93 18.92 8.17C19 8.43 19 8.72 19 9.29L19 16.53ZM7 19.73L7 12.33C7 11.77 7 11.49 7.1 11.27C7.2 11.08 7.35 10.93 7.54 10.84C7.75 10.73 8.03 10.73 8.59 10.73L11.4 10.73C11.96 10.73 12.24 10.73 12.45 10.84C12.64 10.93 12.79 11.08 12.89 11.27C13 11.49 13 11.77 13 12.33L13 19.73" stroke="#00ABDF" stroke-opacity="1.000000" stroke-width="2.000000" stroke-linejoin="round" stroke-linecap="round"/>
</svg>
