<svg viewBox="0 0 45 45" xmlns="http://www.w3.org/2000/svg" xmlns:xlink="http://www.w3.org/1999/xlink" width="45.000000" height="45.000000" fill="none">
	<rect id="иконка дом" width="45.000000" height="45.000000" x="0.000000" y="0.000000" fill="rgb(255,255,255)" fill-opacity="0" />
	<g id="Group 1321316777">
		<path id="Vector" d="M17.4364 16.7266C14.4404 16.7266 12.0117 19.1678 12.0117 22.1791C12.0117 29.5287 22.5009 35.5515 22.5009 35.5515C22.5009 35.5515 32.9901 29.5265 32.9901 22.1791C32.9901 19.1678 30.5614 16.7266 27.5654 16.7266C25.251 16.7266 23.2817 18.1856 22.5009 20.2344C21.7201 18.1856 19.7508 16.7266 17.4364 16.7266Z" fill-rule="nonzero" stroke="rgb(0,171,223)" stroke-linecap="round" stroke-linejoin="round" stroke-width="2" />
		<path id="Vector" d="M17.8039 26.6221C16.6413 25.1674 15.8281 23.6216 15.8281 22.182C15.8281 21.2888 16.5507 20.5625 17.4394 20.5625" fill-rule="nonzero" stroke="rgb(0,171,223)" stroke-linecap="round" stroke-linejoin="round" stroke-width="2" />
		<path id="Vector" d="M32.5098 7.61645L32.5098 5.53516L37.2788 5.53516L37.2788 11.5167" fill-rule="nonzero" stroke="rgb(0,171,223)" stroke-linecap="round" stroke-linejoin="round" stroke-width="2" />
		<path id="Vector" d="M39.1856 40.04L39.1856 21.8308L42.9991 21.8308L42.9991 19.9143L24.3135 4.60809C23.2545 3.74522 21.7489 3.74522 20.6899 4.60809L2 19.9143L2 21.8308L5.81562 21.8308L5.81562 40.04L34.0758 40.04L39.1856 40.04Z" fill-rule="nonzero" stroke="rgb(0,171,223)" stroke-linecap="round" stroke-linejoin="round" stroke-width="2" />
	</g>
</svg>
