<svg viewBox="0 0 36 45" xmlns="http://www.w3.org/2000/svg" xmlns:xlink="http://www.w3.org/1999/xlink" width="36.000000" height="45.000000" fill="none">
	<rect id="иконка капельницы" width="36.000000" height="45.000000" x="0.000000" y="0.000000" fill="rgb(255,255,255)" fill-opacity="0" />
	<path id="Vector" d="M25.0039 15.5751L25.0039 10.1467C25.0039 7.60677 22.9861 5.53341 20.5049 5.53341L20.5008 5.53763L16.1398 5.53763L16.1398 4.21592C16.1398 2.44238 14.7335 0.996094 12.9998 0.996094C11.2661 0.996094 9.85977 2.43815 9.85977 4.21592L9.85977 5.53763L5.50288 5.53763C3.02175 5.53763 1.00391 7.60888 1.00391 10.1488L1.00391 33.1141C1.00391 35.6583 3.02175 37.7275 5.50288 37.7275L9.06087 37.7275L9.06087 38.2532C9.06087 39.4546 10.0163 40.4342 11.1878 40.4342L12.3718 40.4342L12.3718 43.3542C12.3718 43.709 12.6518 43.9961 12.9977 43.9961C13.3436 43.9961 13.6237 43.709 13.6237 43.3542L13.6237 40.4342L14.8076 40.4342C15.9792 40.4342 16.9346 39.4546 16.9346 38.2532L16.9346 37.7275L20.4926 37.7275C22.9696 37.7275 24.9916 35.6583 24.9916 33.1141L24.9916 31.5897L23.7294 32.884L23.7294 33.1141C23.7294 34.9489 22.2736 36.4395 20.4864 36.4395L5.50905 36.4395C3.71976 36.4395 2.26609 34.9468 2.26609 33.1141L2.26609 16.7722C3.52827 17.1058 4.88723 17.2663 6.39238 17.2663C8.59965 17.2663 10.8255 16.92 12.9874 16.5864C13.6587 16.485 14.334 16.3795 15.0135 16.2824L13.9016 15.1464C13.5331 15.2013 13.1666 15.2583 12.8021 15.3132C9.12676 15.8812 5.64907 16.4175 2.27021 15.4378L2.27021 10.1488C2.27021 8.31408 3.72594 6.82345 5.51317 6.82345L5.50905 6.82768L20.4988 6.82768C22.2881 6.82768 23.7417 8.32041 23.7417 10.1531L23.7417 14.2871L25.0039 15.5751ZM10.3189 37.7232L15.6848 37.7232L15.6848 38.249C15.6848 38.743 15.2935 39.14 14.8158 39.14L11.194 39.14C10.7122 39.14 10.3251 38.7388 10.3251 38.249L10.3251 37.7232L10.321 37.7232L10.3189 37.7232ZM14.8859 5.53763L11.124 5.53763L11.124 4.21592C11.124 3.15391 11.9662 2.28614 13.0018 2.28614C14.0375 2.28614 14.8838 3.14968 14.8838 4.21592L14.8838 5.53763L14.8859 5.53763Z" fill="rgb(0,171,223)" fill-rule="nonzero" />
	<path id="Vector" d="M25.0039 10.1467C25.0039 7.60677 22.9861 5.53341 20.5049 5.53341L20.5008 5.53763L16.1398 5.53763L16.1398 4.21592C16.1398 2.44238 14.7335 0.996094 12.9998 0.996094C11.2661 0.996094 9.85977 2.43815 9.85977 4.21592L9.85977 5.53763L5.50288 5.53763C3.02175 5.53763 1.00391 7.60888 1.00391 10.1488L1.00391 33.1141C1.00391 35.6583 3.02175 37.7275 5.50288 37.7275L9.06087 37.7275L9.06087 38.2532C9.06087 39.4546 10.0163 40.4342 11.1878 40.4342L12.3718 40.4342L12.3718 43.3542C12.3718 43.709 12.6518 43.9961 12.9977 43.9961C13.3436 43.9961 13.6237 43.709 13.6237 43.3542L13.6237 40.4342L14.8076 40.4342C15.9792 40.4342 16.9346 39.4546 16.9346 38.2532L16.9346 37.7275L20.4926 37.7275C22.9696 37.7275 24.9916 35.6583 24.9916 33.1141L24.9916 31.5897L23.7294 32.884L23.7294 33.1141C23.7294 34.9489 22.2736 36.4395 20.4864 36.4395L5.50905 36.4395C3.71976 36.4395 2.26609 34.9468 2.26609 33.1141L2.26609 16.7722C3.52827 17.1058 4.88723 17.2663 6.39238 17.2663C8.59965 17.2663 10.8255 16.92 12.9874 16.5864C13.6587 16.485 14.334 16.3795 15.0135 16.2824L13.9016 15.1464C13.5331 15.2013 13.1666 15.2583 12.8021 15.3132C9.12676 15.8812 5.64907 16.4175 2.27021 15.4378L2.27021 10.1488C2.27021 8.31408 3.72594 6.82345 5.51317 6.82345L5.50905 6.82768L20.4988 6.82768C22.2881 6.82768 23.7417 8.32041 23.7417 10.1531L23.7417 14.2871L25.0039 15.5751L25.0039 10.1467ZM15.6848 37.7232L15.6848 38.249C15.6848 38.743 15.2935 39.14 14.8158 39.14L11.194 39.14C10.7122 39.14 10.3251 38.7388 10.3251 38.249L10.3251 37.7232L10.321 37.7232L10.3189 37.7232L15.6848 37.7232ZM11.124 5.53763L11.124 4.21592C11.124 3.15391 11.9662 2.28614 13.0018 2.28614C14.0375 2.28614 14.8838 3.14968 14.8838 4.21592L14.8838 5.53763L14.8859 5.53763L11.124 5.53763Z" fill-rule="nonzero" stroke="rgb(0,171,223)" stroke-width="0.400000006" />
	<path id="Vector" d="M14.2755 20.7977C13.9291 20.2766 13.6194 19.8525 13.4336 19.6101L12.9672 18.9961L12.5065 19.6141C11.9181 20.4059 9.99235 23.1265 10.004 24.8857C10.0175 26.6004 11.3627 27.9961 13.0059 27.9961L13.0272 27.9961C14.4671 27.982 15.6691 26.9095 15.9439 25.4916C15.9865 25.2836 16.0039 25.0675 16.0039 24.8412C15.9962 23.6435 15.0517 21.9732 14.2755 20.7977ZM14.8252 24.8493C14.8329 25.9016 14.0201 26.758 13.0175 26.762L13.0039 26.762C12.0052 26.762 11.1865 25.9137 11.1827 24.8756C11.1749 23.9606 12.0807 22.3166 12.973 21.0138C13.1259 21.2299 13.273 21.4561 13.422 21.6864C13.9775 22.5488 14.4807 23.4759 14.7013 24.1969C14.7768 24.4393 14.8194 24.6615 14.8233 24.8513L14.8252 24.8493Z" fill="rgb(0,171,223)" fill-rule="nonzero" />
	<path id="Vector" d="M13.4336 19.6101L12.9672 18.9961L12.5065 19.6141C11.9181 20.4059 9.99235 23.1265 10.004 24.8857C10.0175 26.6004 11.3627 27.9961 13.0059 27.9961L13.0272 27.9961C14.4671 27.982 15.6691 26.9095 15.9439 25.4916C15.9865 25.2836 16.0039 25.0675 16.0039 24.8412C15.9962 23.6435 15.0517 21.9732 14.2755 20.7977C13.9291 20.2766 13.6194 19.8525 13.4336 19.6101ZM13.0175 26.762L13.0039 26.762C12.0052 26.762 11.1865 25.9137 11.1827 24.8756C11.1749 23.9606 12.0807 22.3166 12.973 21.0138C13.1259 21.2299 13.273 21.4561 13.422 21.6864C13.9775 22.5488 14.4807 23.4759 14.7013 24.1969C14.7768 24.4393 14.8194 24.6615 14.8233 24.8513L14.8252 24.8493C14.8329 25.9016 14.0201 26.758 13.0175 26.762Z" fill-rule="nonzero" stroke="rgb(0,171,223)" stroke-width="0.400000006" />
	<path id="Vector" d="M34.8134 27.4085C34.5609 27.171 34.1547 27.167 33.9022 27.4085L31.9912 29.2362L28.6617 26.0519L32.1743 22.6925L32.2016 22.6664C32.45 22.4288 32.45 22.0364 32.2016 21.7988C32.1427 21.7425 32.0691 21.6982 31.9954 21.666C31.9175 21.6358 31.8333 21.6177 31.7471 21.6177C31.5766 21.6177 31.4145 21.6841 31.2904 21.7988L30.3286 22.7187L25.0713 17.6947L22.6994 15.4263C22.6026 15.3337 22.5016 15.2552 22.3964 15.1787C21.8892 14.8224 21.2683 14.6493 20.6327 14.7037L20.2792 14.7299L18.5892 14.8667L17.0886 14.9855L14.8977 12.8901L13.1067 11.1772C12.9867 11.0625 12.8268 10.9961 12.65 10.9961C12.4795 10.9961 12.3175 11.0625 12.1933 11.1772C12.0734 11.292 12.0039 11.445 12.0039 11.614C12.0039 11.7831 12.0691 11.9321 12.1933 12.0508L13.9843 13.7637L15.5396 15.2512L16.1752 15.859L16.1247 16.4226L16.0131 17.6907L15.9079 18.9064L15.8806 19.2446C15.8763 19.311 15.8721 19.3774 15.8721 19.4519C15.8721 20.1222 16.1436 20.7461 16.6361 21.2171L23.7728 28.0426L24.2652 28.5136L23.7728 28.9846L23.2992 29.4374C23.1793 29.5522 23.1098 29.7052 23.1098 29.8742C23.1098 30.0433 23.1751 30.1922 23.2992 30.311C23.4192 30.4257 23.5791 30.4922 23.7559 30.4922L23.7749 30.4922C23.9411 30.4881 24.0927 30.4257 24.2126 30.311L25.0692 29.4958L27.7525 26.9295L28.6281 27.7668L31.082 30.1138L29.171 31.9414C29.0511 32.0561 28.9816 32.2091 28.9816 32.3782C28.9816 32.5472 29.0469 32.6962 29.171 32.8149C29.2952 32.9337 29.4615 32.9961 29.6277 32.9961C29.794 32.9961 29.9539 32.9337 30.0844 32.8149L30.1034 32.7928L34.8176 28.2841C35.066 28.0426 35.066 27.6501 34.8176 27.4126L34.8134 27.4085ZM25.1807 27.646L25.0692 27.5394L23.7791 26.3055L17.7473 20.5368L17.5495 20.3476C17.2738 20.0839 17.1307 19.7176 17.1623 19.3432L17.2086 18.8279L17.3201 17.5599L17.4316 16.2998L17.4401 16.1891L18.8712 16.0744L19.7783 16.004L20.7401 15.9295C21.1315 15.8993 21.5145 16.0301 21.7902 16.2958L21.845 16.3482L22.7478 17.2116L21.2473 18.6468C21.1273 18.7615 21.0578 18.9145 21.0578 19.0836C21.0578 19.2526 21.1231 19.4016 21.2473 19.5203C21.3672 19.6351 21.5272 19.7015 21.704 19.7015C21.8807 19.7015 22.0365 19.6351 22.1607 19.5203L23.6612 18.0812L23.7812 18.1919L25.0713 19.4257L25.9931 20.3073L24.4883 21.7525C24.3684 21.8673 24.2989 22.0202 24.2989 22.1893C24.2989 22.3584 24.3642 22.5073 24.4883 22.6261C24.6441 22.7751 24.8651 22.8334 25.0734 22.7932C25.1934 22.771 25.3091 22.7147 25.3996 22.6261L26.9044 21.191L29.4278 23.6043L25.1828 27.6501L25.1807 27.646Z" fill="rgb(0,171,223)" fill-rule="nonzero" />
	<path id="Vector" d="M33.9022 27.4085L31.9912 29.2362L28.6617 26.0519L32.1743 22.6925L32.2016 22.6664C32.45 22.4288 32.45 22.0364 32.2016 21.7988C32.1427 21.7425 32.0691 21.6982 31.9954 21.666C31.9175 21.6358 31.8333 21.6177 31.7471 21.6177C31.5766 21.6177 31.4145 21.6841 31.2904 21.7988L30.3286 22.7187L25.0713 17.6947L22.6994 15.4263C22.6026 15.3337 22.5016 15.2552 22.3964 15.1787C21.8892 14.8224 21.2683 14.6493 20.6327 14.7037L20.2792 14.7299L18.5892 14.8667L17.0886 14.9855L14.8977 12.8901L13.1067 11.1772C12.9867 11.0625 12.8268 10.9961 12.65 10.9961C12.4795 10.9961 12.3175 11.0625 12.1933 11.1772C12.0734 11.292 12.0039 11.445 12.0039 11.614C12.0039 11.7831 12.0691 11.9321 12.1933 12.0508L13.9843 13.7637L15.5396 15.2512L16.1752 15.859L16.1247 16.4226L16.0131 17.6907L15.9079 18.9064L15.8806 19.2446C15.8763 19.311 15.8721 19.3774 15.8721 19.4519C15.8721 20.1222 16.1436 20.7461 16.6361 21.2171L23.7728 28.0426L24.2652 28.5136L23.7728 28.9846L23.2992 29.4374C23.1793 29.5522 23.1098 29.7052 23.1098 29.8742C23.1098 30.0433 23.1751 30.1922 23.2992 30.311C23.4192 30.4257 23.5791 30.4922 23.7559 30.4922L23.7749 30.4922C23.9411 30.4881 24.0927 30.4257 24.2126 30.311L25.0692 29.4958L27.7525 26.9295L28.6281 27.7668L31.082 30.1138L29.171 31.9414C29.0511 32.0561 28.9816 32.2091 28.9816 32.3782C28.9816 32.5472 29.0469 32.6962 29.171 32.8149C29.2952 32.9337 29.4615 32.9961 29.6277 32.9961C29.794 32.9961 29.9539 32.9337 30.0844 32.8149L30.1034 32.7928L34.8176 28.2841C35.066 28.0426 35.066 27.6501 34.8176 27.4126L34.8134 27.4085C34.5609 27.171 34.1547 27.167 33.9022 27.4085ZM25.0692 27.5394L23.7791 26.3055L17.7473 20.5368L17.5495 20.3476C17.2738 20.0839 17.1307 19.7176 17.1623 19.3432L17.2086 18.8279L17.3201 17.5599L17.4316 16.2998L17.4401 16.1891L18.8712 16.0744L19.7783 16.004L20.7401 15.9295C21.1315 15.8993 21.5145 16.0301 21.7902 16.2958L21.845 16.3482L22.7478 17.2116L21.2473 18.6468C21.1273 18.7615 21.0578 18.9145 21.0578 19.0836C21.0578 19.2526 21.1231 19.4016 21.2473 19.5203C21.3672 19.6351 21.5272 19.7015 21.704 19.7015C21.8807 19.7015 22.0365 19.6351 22.1607 19.5203L23.6612 18.0812L23.7812 18.1919L25.0713 19.4257L25.9931 20.3073L24.4883 21.7525C24.3684 21.8673 24.2989 22.0202 24.2989 22.1893C24.2989 22.3584 24.3642 22.5073 24.4883 22.6261C24.6441 22.7751 24.8651 22.8334 25.0734 22.7932C25.1934 22.771 25.3091 22.7147 25.3996 22.6261L26.9044 21.191L29.4278 23.6043L25.1828 27.6501L25.1807 27.646L25.0692 27.5394Z" fill-rule="nonzero" stroke="rgb(0,171,223)" stroke-width="0.400000006" />
</svg>
