<svg width="22.000000" height="22.000000" viewBox="0 0 22 22" fill="none" xmlns="http://www.w3.org/2000/svg" xmlns:xlink="http://www.w3.org/1999/xlink">
	<desc>
			Created with Pixso.
	</desc>
	<defs/>
	<path id="Icon" d="M11 21C5.47 21 1 16.52 1 11C1 5.47 5.47 1 11 1C16.52 1 21 5.47 21 11C21 16.52 16.52 21 11 21ZM12.03 5.5C12.31 5.5 12.45 5.5 12.56 5.55C12.65 5.6 12.73 5.67 12.77 5.77C12.83 5.87 12.83 6.01 12.83 6.3L12.83 8.36C12.83 8.64 12.83 8.78 12.88 8.89C12.93 8.98 13.01 9.06 13.1 9.11C13.21 9.16 13.35 9.16 13.63 9.16L15.7 9.16C15.98 9.16 16.12 9.16 16.22 9.22C16.32 9.26 16.39 9.34 16.44 9.44C16.5 9.54 16.5 9.68 16.5 9.96L16.5 12.03C16.5 12.31 16.5 12.45 16.44 12.55C16.39 12.65 16.32 12.73 16.22 12.77C16.12 12.83 15.98 12.83 15.7 12.83L13.63 12.83C13.35 12.83 13.21 12.83 13.1 12.88C13.01 12.93 12.93 13.01 12.88 13.1C12.83 13.21 12.83 13.35 12.83 13.63L12.83 15.69C12.83 15.98 12.83 16.12 12.77 16.22C12.73 16.32 12.65 16.39 12.56 16.44C12.45 16.5 12.31 16.5 12.03 16.5L9.96 16.5C9.68 16.5 9.54 16.5 9.43 16.44C9.34 16.39 9.26 16.32 9.22 16.22C9.16 16.12 9.16 15.98 9.16 15.69L9.16 13.63C9.16 13.35 9.16 13.21 9.11 13.1C9.06 13.01 8.98 12.93 8.89 12.88C8.78 12.83 8.64 12.83 8.36 12.83L6.29 12.83C6.02 12.83 5.87 12.83 5.77 12.77C5.67 12.73 5.6 12.65 5.55 12.55C5.5 12.45 5.5 12.31 5.5 12.03L5.5 9.96C5.5 9.68 5.5 9.54 5.55 9.44C5.6 9.34 5.67 9.26 5.77 9.22C5.87 9.16 6.02 9.16 6.29 9.16L8.36 9.16C8.64 9.16 8.78 9.16 8.89 9.11C8.98 9.06 9.06 8.98 9.11 8.89C9.16 8.78 9.16 8.64 9.16 8.36L9.16 6.3C9.16 6.01 9.16 5.87 9.22 5.77C9.26 5.67 9.34 5.6 9.43 5.55C9.54 5.5 9.68 5.5 9.96 5.5L12.03 5.5Z" stroke="#00ABDF" stroke-opacity="1.000000" stroke-width="2.000000" stroke-linejoin="round"/>
</svg>
