<svg width="48.713867" height="46.525391" viewBox="0 0 48.7139 46.5254" fill="none" xmlns="http://www.w3.org/2000/svg" xmlns:xlink="http://www.w3.org/1999/xlink">
	<desc>
			Created with Pixso.
	</desc>
	<defs/>
	<path id="Star 1" d="M22.56 1.1L16.56 13.19C16.26 13.78 15.7 14.19 15.06 14.28L1.7 16.26C0.07 16.5 -0.58 18.51 0.6 19.66L10.24 29.11C10.71 29.57 10.92 30.23 10.81 30.87L8.56 44.18C8.29 45.81 10 47.05 11.46 46.29L23.43 40.04C24.01 39.74 24.7 39.74 25.28 40.04L37.24 46.29C38.71 47.05 40.41 45.81 40.14 44.18L37.89 30.87C37.79 30.23 38 29.57 38.47 29.11L48.11 19.66C49.29 18.51 48.63 16.5 47 16.26L33.65 14.28C33 14.19 32.44 13.78 32.15 13.19L26.14 1.1C25.41 -0.38 23.3 -0.38 22.56 1.1Z" fill="#F28833" fill-opacity="1.000000" fill-rule="evenodd"/>
</svg>
