<svg width="18.166504" height="18.167969" viewBox="0 0 18.1665 18.168" fill="none" xmlns="http://www.w3.org/2000/svg" xmlns:xlink="http://www.w3.org/1999/xlink">
	<desc>
			Created with Pixso.
	</desc>
	<defs/>
	<path id="Icon" d="M14.91 4.16L16.37 4.76C16.78 4.94 17.11 5.26 17.28 5.68C17.45 6.1 17.45 6.56 17.28 6.98L16.68 8.43C16.51 8.85 16.51 9.31 16.68 9.73L17.28 11.18C17.37 11.39 17.41 11.6 17.41 11.83C17.41 12.05 17.37 12.27 17.28 12.48C17.2 12.68 17.07 12.87 16.91 13.03C16.76 13.18 16.57 13.31 16.37 13.39L14.91 14C14.5 14.17 14.17 14.5 14 14.91L13.39 16.37C13.22 16.78 12.89 17.11 12.48 17.28C12.06 17.46 11.59 17.46 11.18 17.28L9.73 16.68C9.31 16.51 8.85 16.51 8.43 16.68L6.98 17.28C6.56 17.46 6.1 17.46 5.68 17.28C5.27 17.11 4.94 16.78 4.76 16.37L4.16 14.91C3.99 14.5 3.66 14.17 3.25 14L1.79 13.39C1.38 13.22 1.05 12.89 0.87 12.48C0.7 12.06 0.7 11.6 0.87 11.18L1.48 9.73C1.65 9.31 1.65 8.85 1.48 8.43L0.87 6.98C0.79 6.77 0.75 6.55 0.75 6.33C0.75 6.1 0.79 5.89 0.87 5.68C0.96 5.47 1.08 5.29 1.24 5.13C1.4 4.97 1.59 4.85 1.79 4.76L3.24 4.16C3.66 3.99 3.99 3.66 4.16 3.25L4.76 1.79C4.94 1.37 5.27 1.05 5.68 0.87C6.1 0.7 6.56 0.7 6.98 0.87L8.43 1.48C8.85 1.65 9.31 1.65 9.73 1.48L11.18 0.87C11.6 0.7 12.06 0.7 12.48 0.87C12.89 1.05 13.22 1.38 13.39 1.79L14 3.25L14 3.25C14.17 3.66 14.5 3.99 14.91 4.16ZM6.58 9.08L8.25 10.75L12 7" stroke="#00ABDF" stroke-opacity="1.000000" stroke-width="1.500000" stroke-linejoin="round" stroke-linecap="round"/>
</svg>
