<svg width="18.000000" height="22.000000" viewBox="0 0 18 22" fill="none" xmlns="http://www.w3.org/2000/svg" xmlns:xlink="http://www.w3.org/1999/xlink">
	<desc>
			Created with Pixso.
	</desc>
	<defs/>
	<path id="Icon" d="M13 3C13.93 3 14.39 3 14.77 3.1C15.81 3.37 16.62 4.18 16.89 5.22C17 5.6 17 6.07 17 7L17 16.19C17 17.87 17 18.71 16.67 19.36C16.38 19.92 15.92 20.38 15.36 20.67C14.72 21 13.88 21 12.2 21L5.79 21C4.11 21 3.27 21 2.63 20.67C2.07 20.38 1.61 19.92 1.32 19.36C1 18.71 1 17.87 1 16.19L1 7C1 6.07 1 5.6 1.1 5.22C1.37 4.18 2.18 3.37 3.22 3.1C3.6 3 4.06 3 5 3M11.39 1C11.96 1 12.24 1 12.45 1.1C12.64 1.2 12.79 1.35 12.89 1.54C13 1.76 13 2.03 13 2.6L13 3.39C13 3.96 13 4.23 12.89 4.45C12.79 4.64 12.64 4.79 12.45 4.89C12.24 5 11.96 5 11.39 5L6.6 5C6.04 5 5.75 5 5.54 4.89C5.35 4.79 5.2 4.64 5.1 4.45C5 4.23 5 3.96 5 3.39L5 2.6C5 2.03 5 1.76 5.1 1.54C5.2 1.35 5.35 1.2 5.54 1.1C5.75 1 6.04 1 6.6 1L11.39 1ZM6 14L8 16L12.5 11.5" stroke="#00ABDF" stroke-opacity="1.000000" stroke-width="2.000000" stroke-linejoin="round" stroke-linecap="round"/>
</svg>
