<svg viewBox="0 0 45 42" xmlns="http://www.w3.org/2000/svg" xmlns:xlink="http://www.w3.org/1999/xlink" width="45.000000" height="42.000000" fill="none">
	<rect id="иконка узи" width="45.000000" height="42.000000" x="0.000000" y="0.000000" fill="rgb(255,255,255)" fill-opacity="0" />
	<path id="Vector" d="M41.5728 25.2008L14.6286 25.2008C14.2456 25.2008 13.9343 24.9051 13.9343 24.5414C13.9343 24.1777 14.2456 23.8821 14.6286 23.8821L41.5728 23.8821C42.1188 23.8821 42.561 23.462 42.561 22.9435L42.561 3.31044C42.561 2.79187 42.1188 2.37185 41.5728 2.37185L10.7498 2.37185C10.2038 2.37185 9.76152 2.79187 9.76152 3.31044L9.76152 4.99522C9.76152 5.35892 9.45022 5.65458 9.06728 5.65458C8.68434 5.65458 8.37305 5.35892 8.37305 4.99522L8.37305 3.31044C8.37305 2.06446 9.44034 1.05078 10.7522 1.05078L41.5753 1.05078C42.8871 1.05078 43.9544 2.06446 43.9544 3.31044L43.9544 22.9411C43.9544 24.1871 42.8871 25.2008 41.5753 25.2008L41.5728 25.2008Z" fill="rgb(0,171,223)" fill-rule="nonzero" />
	<path id="Vector" d="M14.6286 25.2008C14.2456 25.2008 13.9343 24.9051 13.9343 24.5414C13.9343 24.1777 14.2456 23.8821 14.6286 23.8821L41.5728 23.8821C42.1188 23.8821 42.561 23.462 42.561 22.9435L42.561 3.31044C42.561 2.79187 42.1188 2.37185 41.5728 2.37185L10.7498 2.37185C10.2038 2.37185 9.76152 2.79187 9.76152 3.31044L9.76152 4.99522C9.76152 5.35892 9.45022 5.65458 9.06728 5.65458C8.68434 5.65458 8.37305 5.35892 8.37305 4.99522L8.37305 3.31044C8.37305 2.06446 9.44034 1.05078 10.7522 1.05078L41.5753 1.05078C42.8871 1.05078 43.9544 2.06446 43.9544 3.31044L43.9544 22.9411C43.9544 24.1871 42.8871 25.2008 41.5753 25.2008L41.5728 25.2008L14.6286 25.2008Z" fill-rule="nonzero" stroke="rgb(0,171,223)" stroke-linejoin="round" stroke-width="0.400000006" />
	<path id="Vector" d="M33.782 29.3984C33.3671 29.3984 33.0299 29.1156 33.0299 28.7677L33.0299 28.55C33.0299 28.4512 32.9415 28.3659 32.888 28.3255L32.0208 27.6544C31.6167 27.3402 31.3945 26.9294 31.3945 26.4985L31.3999 24.7792C31.3999 24.4313 31.7371 24.1484 32.152 24.1484C32.5668 24.1484 32.9041 24.4335 32.9041 24.7814L32.8987 26.503C32.8987 26.604 32.987 26.687 33.0406 26.7274L33.9078 27.3985C34.3119 27.7105 34.5341 28.1213 34.5341 28.55L34.5341 28.7677C34.5341 29.1156 34.1968 29.3984 33.782 29.3984Z" fill="rgb(0,171,223)" fill-rule="nonzero" />
	<path id="Vector" d="M33.0299 28.7677L33.0299 28.55C33.0299 28.4512 32.9415 28.3659 32.888 28.3255L32.0208 27.6544C31.6167 27.3402 31.3945 26.9294 31.3945 26.4985L31.3999 24.7792C31.3999 24.4313 31.7371 24.1484 32.152 24.1484C32.5668 24.1484 32.9041 24.4335 32.9041 24.7814L32.8987 26.503C32.8987 26.604 32.987 26.687 33.0406 26.7274L33.9078 27.3985C34.3119 27.7105 34.5341 28.1213 34.5341 28.55L34.5341 28.7677C34.5341 29.1156 34.1968 29.3984 33.782 29.3984C33.3671 29.3984 33.0299 29.1156 33.0299 28.7677Z" fill-rule="nonzero" stroke="rgb(0,171,223)" stroke-linejoin="round" stroke-width="0.400000006" />
	<path id="Vector" d="M20.6375 29.3984C20.2223 29.3984 19.8848 29.1157 19.8848 28.768L19.8848 28.5504C19.8848 28.1196 20.1071 27.7113 20.5089 27.3994L21.3769 26.7263C21.4304 26.6859 21.5188 26.6007 21.5188 26.502L21.5135 24.7811C21.5135 24.4334 21.8483 24.1484 22.2662 24.1484C22.6814 24.1484 23.0189 24.4311 23.0189 24.7789L23.0243 26.4997C23.0243 26.9305 22.8046 27.3411 22.3975 27.6552L21.5295 28.326C21.476 28.3664 21.3876 28.4494 21.3876 28.5504L21.3876 28.768C21.3876 29.1157 21.05 29.3984 20.6348 29.3984L20.6375 29.3984Z" fill="rgb(0,171,223)" fill-rule="nonzero" />
	<path id="Vector" d="M19.8848 28.768L19.8848 28.5504C19.8848 28.1196 20.1071 27.7113 20.5089 27.3994L21.3769 26.7263C21.4304 26.6859 21.5188 26.6007 21.5188 26.502L21.5135 24.7811C21.5135 24.4334 21.8483 24.1484 22.2662 24.1484C22.6814 24.1484 23.0189 24.4311 23.0189 24.7789L23.0243 26.4997C23.0243 26.9305 22.8046 27.3411 22.3975 27.6552L21.5295 28.326C21.476 28.3664 21.3876 28.4494 21.3876 28.5504L21.3876 28.768C21.3876 29.1157 21.05 29.3984 20.6348 29.3984L20.6375 29.3984C20.2223 29.3984 19.8848 29.1157 19.8848 28.768Z" fill-rule="nonzero" stroke="rgb(0,171,223)" stroke-linejoin="round" stroke-width="0.400000006" />
	<path id="Vector" d="M39.1089 21L18.4691 21C18.1091 21 17.8033 21.2219 17.7915 21.5054C17.7774 21.8038 18.0785 22.05 18.4527 22.05L39.1066 22.05C39.4713 22.05 39.7678 21.815 39.7678 21.5259C39.7678 21.2369 39.4713 21.0019 39.1066 21.0019L39.1089 21Z" fill="rgb(0,171,223)" fill-rule="nonzero" />
	<path id="Vector" d="M18.4691 21C18.1091 21 17.8033 21.2219 17.7915 21.5054C17.7774 21.8038 18.0785 22.05 18.4527 22.05L39.1066 22.05C39.4713 22.05 39.7678 21.815 39.7678 21.5259C39.7678 21.2369 39.4713 21.0019 39.1066 21.0019L39.1089 21L18.4691 21Z" fill-rule="nonzero" stroke="rgb(0,171,223)" stroke-linejoin="round" stroke-width="0.400000006" />
	<path id="Vector" d="M33.4876 34.6492C32.3333 34.6492 31.3945 33.7073 31.3945 32.5492C31.3945 31.3911 32.3333 30.4492 33.4876 30.4492C34.6418 30.4492 35.5806 31.3911 35.5806 32.5492C35.5806 33.7073 34.6418 34.6492 33.4876 34.6492ZM33.4876 31.9515C33.1604 31.9515 32.8918 32.2183 32.8918 32.5492C32.8918 32.8801 33.1578 33.1469 33.4876 33.1469C33.8173 33.1469 34.0833 32.8801 34.0833 32.5492C34.0833 32.2183 33.8173 31.9515 33.4876 31.9515Z" fill="rgb(0,171,223)" fill-rule="nonzero" />
	<path id="Vector" d="M31.3945 32.5492C31.3945 31.3911 32.3333 30.4492 33.4876 30.4492C34.6418 30.4492 35.5806 31.3911 35.5806 32.5492C35.5806 33.7073 34.6418 34.6492 33.4876 34.6492C32.3333 34.6492 31.3945 33.7073 31.3945 32.5492ZM32.8918 32.5492C32.8918 32.8801 33.1578 33.1469 33.4876 33.1469C33.8173 33.1469 34.0833 32.8801 34.0833 32.5492C34.0833 32.2183 33.8173 31.9515 33.4876 31.9515C33.1604 31.9515 32.8918 32.2183 32.8918 32.5492Z" fill-rule="nonzero" stroke="rgb(0,171,223)" stroke-linejoin="round" stroke-width="0.400000006" />
	<path id="Vector" d="M27.2102 34.6492C26.056 34.6492 25.1172 33.7073 25.1172 32.5492C25.1172 31.3911 26.056 30.4492 27.2102 30.4492C28.3644 30.4492 29.3032 31.3911 29.3032 32.5492C29.3032 33.7073 28.3644 34.6492 27.2102 34.6492ZM27.2102 31.9515C26.8804 31.9515 26.6145 32.2183 26.6145 32.5492C26.6145 32.8801 26.8804 33.1469 27.2102 33.1469C27.54 33.1469 27.8059 32.8801 27.8059 32.5492C27.8059 32.2183 27.54 31.9515 27.2102 31.9515Z" fill="rgb(0,171,223)" fill-rule="nonzero" />
	<path id="Vector" d="M25.1172 32.5492C25.1172 31.3911 26.056 30.4492 27.2102 30.4492C28.3644 30.4492 29.3032 31.3911 29.3032 32.5492C29.3032 33.7073 28.3644 34.6492 27.2102 34.6492C26.056 34.6492 25.1172 33.7073 25.1172 32.5492ZM26.6145 32.5492C26.6145 32.8801 26.8804 33.1469 27.2102 33.1469C27.54 33.1469 27.8059 32.8801 27.8059 32.5492C27.8059 32.2183 27.54 31.9515 27.2102 31.9515C26.8804 31.9515 26.6145 32.2183 26.6145 32.5492Z" fill-rule="nonzero" stroke="rgb(0,171,223)" stroke-linejoin="round" stroke-width="0.400000006" />
	<path id="Vector" d="M20.9309 34.6492C19.7767 34.6492 18.8379 33.7073 18.8379 32.5492C18.8379 31.3911 19.7767 30.4492 20.9309 30.4492C22.0851 30.4492 23.0239 31.3911 23.0239 32.5492C23.0239 33.7073 22.0851 34.6492 20.9309 34.6492ZM20.9309 31.9515C20.6038 31.9515 20.3352 32.2183 20.3352 32.5492C20.3352 32.8801 20.6011 33.1469 20.9309 33.1469C21.2607 33.1469 21.5266 32.8801 21.5266 32.5492C21.5266 32.2183 21.2607 31.9515 20.9309 31.9515Z" fill="rgb(0,171,223)" fill-rule="nonzero" />
	<path id="Vector" d="M18.8379 32.5492C18.8379 31.3911 19.7767 30.4492 20.9309 30.4492C22.0851 30.4492 23.0239 31.3911 23.0239 32.5492C23.0239 33.7073 22.0851 34.6492 20.9309 34.6492C19.7767 34.6492 18.8379 33.7073 18.8379 32.5492ZM20.3352 32.5492C20.3352 32.8801 20.6011 33.1469 20.9309 33.1469C21.2607 33.1469 21.5266 32.8801 21.5266 32.5492C21.5266 32.2183 21.2607 31.9515 20.9309 31.9515C20.6038 31.9515 20.3352 32.2183 20.3352 32.5492Z" fill-rule="nonzero" stroke="rgb(0,171,223)" stroke-linejoin="round" stroke-width="0.400000006" />
	<path id="Vector" d="M1.73124 13.65C1.46608 13.65 1.21552 13.4975 1.10361 13.2385C0.952785 12.8923 1.11334 12.4929 1.45878 12.3428C6.10034 10.3457 11.3476 9.956 16.2349 11.2511C16.5998 11.3479 16.8187 11.7207 16.7214 12.0838C16.6241 12.4469 16.2495 12.6624 15.8846 12.5679C11.2965 11.3528 6.3655 11.7159 2.00614 13.5943C1.91613 13.6331 1.82612 13.65 1.73368 13.65L1.73124 13.65Z" fill="rgb(0,171,223)" fill-rule="nonzero" />
	<path id="Vector" d="M1.10361 13.2385C0.952785 12.8923 1.11334 12.4929 1.45878 12.3428C6.10034 10.3457 11.3476 9.956 16.2349 11.2511C16.5998 11.3479 16.8187 11.7207 16.7214 12.0838C16.6241 12.4469 16.2495 12.6624 15.8846 12.5679C11.2965 11.3528 6.3655 11.7159 2.00614 13.5943C1.91613 13.6331 1.82612 13.65 1.73368 13.65L1.73124 13.65C1.46608 13.65 1.21552 13.4975 1.10361 13.2385Z" fill-rule="nonzero" stroke="rgb(0,171,223)" stroke-linejoin="round" stroke-width="0.400000006" />
	<path id="Vector" d="M10.4679 31.5016C7.92453 31.5016 5.84047 29.6563 5.72319 27.2987L5.32495 19.3804C5.30052 18.8907 4.94869 18.4759 4.45028 18.3489C4.118 18.2628 3.78817 18.1721 3.46077 18.0724C2.01683 17.6417 1.04688 16.388 1.04688 14.9554L1.04688 11.5051C1.04688 10.0724 2.02172 8.81882 3.47055 8.38358C8.04669 7.00756 12.8843 7.00756 17.4604 8.38358C18.9092 8.81882 19.8841 10.0747 19.8841 11.5051L19.8841 14.9554C19.8841 16.388 18.9166 17.6394 17.48 18.0724C17.1501 18.1721 16.8178 18.2628 16.4856 18.3489C15.9872 18.4759 15.6329 18.8907 15.6085 19.3804L15.2102 27.2987C15.0929 29.6563 13.0064 31.5016 10.463 31.5016L10.4679 31.5016ZM4.81432 17.1203C5.88689 17.3946 6.64429 18.2787 6.69559 19.3214L7.09384 27.2398C7.17691 28.915 8.65994 30.2276 10.4655 30.2276C12.271 30.2276 13.754 28.915 13.8371 27.2398L14.2354 19.3214C14.2867 18.2787 15.0465 17.3923 16.1215 17.118C16.4343 17.0387 16.747 16.9525 17.0548 16.8573C17.91 16.6011 18.5086 15.8191 18.5086 14.9554L18.5086 11.5051C18.5086 10.6278 17.9173 9.8616 17.0353 9.59637C12.7352 8.30197 8.19084 8.30197 3.89322 9.59637C3.01122 9.8616 2.41996 10.6278 2.41996 11.5051L2.41996 14.9554C2.41996 15.8327 3.00634 16.5989 3.87856 16.8596C4.18885 16.9525 4.49914 17.0387 4.81187 17.1203L4.81432 17.1203Z" fill="rgb(0,171,223)" fill-rule="nonzero" />
	<path id="Vector" d="M5.72319 27.2987L5.32495 19.3804C5.30052 18.8907 4.94869 18.4759 4.45028 18.3489C4.118 18.2628 3.78817 18.1721 3.46077 18.0724C2.01683 17.6417 1.04688 16.388 1.04688 14.9554L1.04688 11.5051C1.04688 10.0724 2.02172 8.81882 3.47055 8.38358C8.04669 7.00756 12.8843 7.00756 17.4604 8.38358C18.9092 8.81882 19.8841 10.0747 19.8841 11.5051L19.8841 14.9554C19.8841 16.388 18.9166 17.6394 17.48 18.0724C17.1501 18.1721 16.8178 18.2628 16.4856 18.3489C15.9872 18.4759 15.6329 18.8907 15.6085 19.3804L15.2102 27.2987C15.0929 29.6563 13.0064 31.5016 10.463 31.5016L10.4679 31.5016C7.92453 31.5016 5.84047 29.6563 5.72319 27.2987ZM6.69559 19.3214L7.09384 27.2398C7.17691 28.915 8.65994 30.2276 10.4655 30.2276C12.271 30.2276 13.754 28.915 13.8371 27.2398L14.2354 19.3214C14.2867 18.2787 15.0465 17.3923 16.1215 17.118C16.4343 17.0387 16.747 16.9525 17.0548 16.8573C17.91 16.6011 18.5086 15.8191 18.5086 14.9554L18.5086 11.5051C18.5086 10.6278 17.9173 9.8616 17.0353 9.59637C12.7352 8.30197 8.19084 8.30197 3.89322 9.59637C3.01122 9.8616 2.41996 10.6278 2.41996 11.5051L2.41996 14.9554C2.41996 15.8327 3.00634 16.5989 3.87856 16.8596C4.18885 16.9525 4.49914 17.0387 4.81187 17.1203L4.81432 17.1203C5.88689 17.3946 6.64429 18.2787 6.69559 19.3214Z" fill-rule="nonzero" stroke="rgb(0,171,223)" stroke-linejoin="round" stroke-width="0.400000006" />
	<path id="Vector" d="M40.3952 37.797L14.2929 37.797C13.9137 37.797 13.6055 37.5093 13.6055 37.1554C13.6055 36.8015 13.9137 36.5139 14.2929 36.5139L40.3927 36.5139C41.0191 36.5139 41.5304 36.0367 41.5304 35.4522L41.5304 30.6964C41.5304 30.1096 41.0191 29.6347 40.3927 29.6347L17.3707 29.6347C16.9915 29.6347 16.6832 29.347 16.6832 28.9931C16.6832 28.6392 16.9915 28.3516 17.3707 28.3516L40.3927 28.3516C41.7799 28.3516 42.9078 29.4041 42.9078 30.6987L42.9078 35.4545C42.9078 36.749 41.7799 37.8016 40.3927 37.8016L40.3952 37.797Z" fill="rgb(0,171,223)" fill-rule="nonzero" />
	<path id="Vector" d="M14.2929 37.797C13.9137 37.797 13.6055 37.5093 13.6055 37.1554C13.6055 36.8015 13.9137 36.5139 14.2929 36.5139L40.3927 36.5139C41.0191 36.5139 41.5304 36.0367 41.5304 35.4522L41.5304 30.6964C41.5304 30.1096 41.0191 29.6347 40.3927 29.6347L17.3707 29.6347C16.9915 29.6347 16.6832 29.347 16.6832 28.9931C16.6832 28.6392 16.9915 28.3516 17.3707 28.3516L40.3927 28.3516C41.7799 28.3516 42.9078 29.4041 42.9078 30.6987L42.9078 35.4545C42.9078 36.749 41.7799 37.8016 40.3927 37.8016L40.3952 37.797L14.2929 37.797Z" fill-rule="nonzero" stroke="rgb(0,171,223)" stroke-linejoin="round" stroke-width="0.400000006" />
	<path id="Vector" d="M32.2153 40.9492L14.8814 40.9492C11.8683 40.9492 9.41797 38.5482 9.41797 35.5957L9.41797 31.1259C9.41797 30.7527 9.72764 30.4492 10.1086 30.4492C10.4895 30.4492 10.7992 30.7527 10.7992 31.1259L10.7992 35.5957C10.7992 37.7992 12.6301 39.5934 14.8789 39.5934L32.2128 39.5934C34.4616 39.5934 36.2926 37.7992 36.2926 35.5957L36.2926 35.0008C36.2926 34.6275 36.6022 34.3241 36.9832 34.3241C37.3641 34.3241 37.6738 34.6275 37.6738 35.0008L37.6738 35.5957C37.6738 38.5482 35.2235 40.9492 32.2104 40.9492L32.2153 40.9492Z" fill="rgb(0,171,223)" fill-rule="nonzero" />
	<path id="Vector" d="M14.8814 40.9492C11.8683 40.9492 9.41797 38.5482 9.41797 35.5957L9.41797 31.1259C9.41797 30.7527 9.72764 30.4492 10.1086 30.4492C10.4895 30.4492 10.7992 30.7527 10.7992 31.1259L10.7992 35.5957C10.7992 37.7992 12.6301 39.5934 14.8789 39.5934L32.2128 39.5934C34.4616 39.5934 36.2926 37.7992 36.2926 35.5957L36.2926 35.0008C36.2926 34.6275 36.6022 34.3241 36.9832 34.3241C37.3641 34.3241 37.6738 34.6275 37.6738 35.0008L37.6738 35.5957C37.6738 38.5482 35.2235 40.9492 32.2104 40.9492L32.2153 40.9492L14.8814 40.9492Z" fill-rule="nonzero" stroke="rgb(0,171,223)" stroke-linejoin="round" stroke-width="0.400000006" />
	<path id="Vector" d="M29.3034 17.85C29.1343 17.85 28.9677 17.8048 28.8207 17.7144C28.3013 17.3979 26.4247 16.1931 24.1438 14.0005C21.5346 11.4915 21.564 8.718 22.7498 7.08148C23.3574 6.24287 24.6828 5.35228 26.2728 5.25734C27.0813 5.21213 28.2156 5.3568 29.3009 6.22931C30.3862 5.3568 31.5181 5.21213 32.329 5.25734C33.919 5.35228 35.2445 6.24287 35.8545 7.08148C37.0403 8.718 37.0697 11.4915 34.4605 14.0005C32.1771 16.1954 30.3029 17.4002 29.7811 17.7166C29.6341 17.8048 29.4675 17.85 29.3009 17.85L29.3034 17.85ZM26.5521 6.52316C26.4908 6.52316 26.4271 6.52316 26.3659 6.52768C25.2512 6.59323 24.3055 7.2284 23.8988 7.78898C23.2422 8.6954 22.7645 10.836 25.1409 13.1213C27.0176 14.925 28.5904 16.0191 29.3058 16.4802C29.9795 16.0439 31.5892 14.9318 33.4707 13.1213C35.8447 10.836 35.3694 8.6954 34.7128 7.78898C34.3061 7.2284 33.3605 6.59549 32.2457 6.52768C31.3344 6.46665 30.5259 6.81249 29.835 7.53582C29.5729 7.82515 29.0143 7.81611 28.7644 7.52225C28.125 6.8577 27.3826 6.5209 26.5545 6.5209L26.5521 6.52316Z" fill="rgb(0,171,223)" fill-rule="nonzero" />
	<path id="Vector" d="M28.8207 17.7144C28.3013 17.3979 26.4247 16.1931 24.1438 14.0005C21.5346 11.4915 21.564 8.718 22.7498 7.08148C23.3574 6.24287 24.6828 5.35228 26.2728 5.25734C27.0813 5.21213 28.2156 5.3568 29.3009 6.22931C30.3862 5.3568 31.5181 5.21213 32.329 5.25734C33.919 5.35228 35.2445 6.24287 35.8545 7.08148C37.0403 8.718 37.0697 11.4915 34.4605 14.0005C32.1771 16.1954 30.3029 17.4002 29.7811 17.7166C29.6341 17.8048 29.4675 17.85 29.3009 17.85L29.3034 17.85C29.1343 17.85 28.9677 17.8048 28.8207 17.7144ZM26.3659 6.52768C25.2512 6.59323 24.3055 7.2284 23.8988 7.78898C23.2422 8.6954 22.7645 10.836 25.1409 13.1213C27.0176 14.925 28.5904 16.0191 29.3058 16.4802C29.9795 16.0439 31.5892 14.9318 33.4707 13.1213C35.8447 10.836 35.3694 8.6954 34.7128 7.78898C34.3061 7.2284 33.3605 6.59549 32.2457 6.52768C31.3344 6.46665 30.5259 6.81249 29.835 7.53582C29.5729 7.82515 29.0143 7.81611 28.7644 7.52225C28.125 6.8577 27.3826 6.5209 26.5545 6.5209L26.5521 6.52316C26.4908 6.52316 26.4271 6.52316 26.3659 6.52768Z" fill-rule="nonzero" stroke="rgb(0,171,223)" stroke-linejoin="round" stroke-width="0.400000006" />
</svg>
