<svg width="22.526733" height="20.003906" viewBox="0 0 22.5267 20.0039" fill="none" xmlns="http://www.w3.org/2000/svg" xmlns:xlink="http://www.w3.org/1999/xlink">
	<desc>
			Created with Pixso.
	</desc>
	<defs/>
	<path id="Icon" d="M11.26 7.5L11.26 11.5M11.26 15.5L11.27 15.5M1.65 16.6C1.19 17.39 0.96 17.78 1 18.1C1.03 18.39 1.18 18.64 1.4 18.81C1.67 19 2.12 19 3.03 19L19.48 19C20.39 19 20.85 19 21.11 18.81C21.34 18.64 21.49 18.39 21.52 18.1C21.55 17.78 21.32 17.39 20.87 16.6L12.64 2.39C12.19 1.6 11.96 1.21 11.66 1.08C11.41 0.97 11.11 0.97 10.85 1.08C10.56 1.21 10.33 1.6 9.87 2.39L1.65 16.6Z" stroke="#00ABDF" stroke-opacity="1.000000" stroke-width="2.000000" stroke-linejoin="round" stroke-linecap="round"/>
</svg>
