<svg viewBox="0 0 18.5566 15.5117" xmlns="http://www.w3.org/2000/svg" xmlns:xlink="http://www.w3.org/1999/xlink" width="18.556641" height="15.511719" fill="none" customFrame="#000000">
	<g id="Group 884">
		<rect id="Rectangle 2356" width="31.958916" height="31.958916" x="-5.425781" y="-9.343750" rx="8.000000" opacity="0" fill="rgb(59.0927,74.6288,99.875)" />
		<path id="Subtract" d="M15.7874 14.3488C17.5043 6.23304 18.3873 2.0574 18.4364 1.82194C18.5315 1.50644 18.5704 1.17666 18.5512 0.847687C18.4945 0.59879 18.3606 0.374193 18.1686 0.206037C17.9603 0.0748386 17.72 0.00354958 17.4739 0C17.337 0.00848961 17.2021 0.0372553 17.0736 0.0853567L15.2458 0.750556L10.4275 2.57838L4.69095 4.77706C2.06744 5.75033 0.668368 6.27523 0.493729 6.35175C0.38675 6.39495 0.289912 6.4599 0.209351 6.54249C0.12879 6.62508 0.066265 6.7235 0.0257367 6.83152C-0.0218016 7.02139 -0.0031115 7.22179 0.0787166 7.39959C0.117377 7.48579 0.173805 7.56287 0.244308 7.62576C0.314811 7.68866 0.397799 7.73596 0.487843 7.76456C2.83075 8.64365 4.14447 9.08318 4.42899 9.08318C4.72952 9.07978 5.02537 9.00833 5.29433 8.87421L7.29876 7.57619L10.3716 5.61592L12.8146 4.07654C13.0173 3.93709 13.2321 3.81594 13.4562 3.71451C13.7035 3.62621 13.7947 3.6733 13.8654 3.71451C13.936 3.75572 13.9772 3.88228 13.8654 4.07654C13.7673 4.22431 13.6601 4.36586 13.5445 4.50039L12.7086 5.30098L11.6049 6.3547L10.4275 7.45551L9.4268 8.45625L8.77338 9.08318L7.92863 9.89261C7.82004 10.0117 7.75562 10.1644 7.74615 10.3253C7.7434 10.4949 7.79271 10.6613 7.88743 10.8021L8.09935 11.0611L8.91171 11.6115L10.3834 12.6829L14.1538 15.3319C14.2814 15.4181 14.4243 15.479 14.5747 15.5115C14.8121 15.5108 15.0452 15.449 15.2517 15.3319C15.493 15.2083 15.6608 14.8816 15.7874 14.3488Z" fill="rgb(177,178,180)" fill-rule="evenodd" />
	</g>
</svg>
