<svg width="20.000000" height="20.000000" viewBox="0 0 20 20" fill="none" xmlns="http://www.w3.org/2000/svg" xmlns:xlink="http://www.w3.org/1999/xlink">
	<desc>
			Created with Pixso.
	</desc>
	<defs>
		<clipPath id="clip4670_12047">
			<rect id="trash-03" width="20.000000" height="20.000000" fill="white" fill-opacity="0"/>
		</clipPath>
	</defs>
	<rect id="trash-03" width="20.000000" height="20.000000" fill="#FFFFFF" fill-opacity="0"/>
	<g clip-path="url(#clip4670_12047)">
		<path id="Icon" d="M7.5 2.5L12.5 2.5M2.5 5L17.5 5M15.83 5L15.24 13.76C15.16 15.08 15.11 15.73 14.83 16.23C14.58 16.67 14.2 17.03 13.75 17.25C13.23 17.5 12.57 17.5 11.25 17.5L8.74 17.5C7.42 17.5 6.76 17.5 6.24 17.25C5.79 17.03 5.41 16.67 5.16 16.23C4.88 15.73 4.83 15.08 4.75 13.76L4.16 5M8.33 8.75L8.33 12.91M11.66 8.75L11.66 12.91" stroke="#8E9AAB" stroke-opacity="1.000000" stroke-width="1.500000" stroke-linejoin="round" stroke-linecap="round"/>
	</g>
</svg>
