<svg viewBox="0 0 26.6172 14.2461" xmlns="http://www.w3.org/2000/svg" xmlns:xlink="http://www.w3.org/1999/xlink" width="26.617188" height="14.246094" fill="none" customFrame="#000000">
	<g id="vk">
		<rect id="Rectangle 2356" width="43.701199" height="43.701199" x="-7.595703" y="-16.148438" rx="8.000000" opacity="0" fill="rgb(59.0927,74.6288,99.875)" />
		<path id="Vector" d="M26.3691 12.6822C27.2465 14.0788 25.3911 14.2478 25.3911 14.2478L21.475 14.2478C20.8494 14.2337 20.2391 14.0515 19.7081 13.7206C18.3839 12.8512 16.9913 11.1648 16.0173 11.4586C15.2124 11.7041 15.2124 12.811 15.2124 13.7568C15.2124 14.0989 14.9186 14.2478 14.2625 14.2478L13.0551 14.2478C10.9099 14.2478 8.58354 13.5274 6.26124 11.1004C2.95688 7.67129 0.0751295 0.764748 0.0751295 0.764748C0.0751295 0.764748 -0.0939118 0.418616 0.0751295 0.205302C0.244171 -0.0080121 0.85594 3.96719e-05 0.85594 3.96719e-05L4.65132 3.96719e-05C4.86895 0.0424027 5.07655 0.125717 5.26309 0.245552C5.40971 0.35889 5.52588 0.506871 5.60117 0.676205C5.96724 1.87164 6.45266 3.02721 7.0501 4.12545C8.63989 6.74559 9.37643 6.81401 9.91575 6.54033C10.7207 6.13785 10.447 3.34867 10.447 3.34867C10.447 3.34867 10.4792 2.14123 10.0687 1.618C9.76136 1.2684 9.34393 1.03412 8.8854 0.953913C8.67209 0.92574 9.02627 0.551435 9.48107 0.338121C10.0928 0.0684597 10.9179 -0.00398561 12.3467 0.0121136C12.973 -0.0127553 13.5998 0.0468079 14.2102 0.189202C15.5183 0.491062 15.1963 1.28797 15.1963 4.0852C15.1963 4.98273 15.0715 6.24249 15.7477 6.66107C16.0415 6.84219 17.0396 7.06355 18.8186 4.17375C19.4506 3.02315 19.9592 1.80897 20.3359 0.551434C20.4225 0.400261 20.544 0.271937 20.6901 0.177128C20.7637 0.123809 20.8471 0.0856721 20.9356 0.0649414C21.024 0.0442108 21.1157 0.0413032 21.2053 0.0563865L25.2019 0.0322357C25.866 0.0322357 26.4898 0.0322357 26.5945 0.434715C26.7515 0.994161 26.1075 2.90996 24.4734 4.99078C21.7929 8.4038 21.4951 8.08585 23.7208 10.058C25.8539 11.8933 26.2967 12.5574 26.3691 12.6822Z" fill="rgb(255,255,255)" fill-rule="nonzero" />
	</g>
</svg>
